<?xml version="1.0" standalone="no"?>
<!DOCTYPE svg PUBLIC "-//W3C//DTD SVG 1.1//EN" "http://www.w3.org/Graphics/SVG/1.1/DTD/svg11.dtd">
<svg xmlns="http://www.w3.org/2000/svg">
  <defs>
    <font id="Lora" horiz-adv-x="549">
      <font-face font-family="Lora Medium" units-per-em="1000" panose-1="0 0 0 0 0 0 0 0 0 0" ascent="1006" descent="-274" alphabetic="0" />
      <glyph unicode=" " glyph-name="gid154" horiz-adv-x="263" />
      <glyph unicode="!" glyph-name="gid163" horiz-adv-x="263" d="M108,224L69,637q-2,28 13.5,53.5T132,716q35,0 49.5-25.5T193,637L155,224H108ZM131-16Q106-16 87,4T68,53q0,28 19.5,48.5T132,122q27,0 44.5-20.5T194,53q0-29-19-49T131-16Z" />
      <glyph unicode="&quot;" glyph-name="gid201" horiz-adv-x="339" d="M207,491l-8,225h84l-9-225H207ZM64,491L56,716h84l-9-225H64Z" />
      <glyph unicode="#" glyph-name="gid170" horiz-adv-x="844" d="M157-16l43,186H34l18,70H216l53,219H100l18,70H285l44,187h77L363,529H563l44,187h77L642,529H809v-1l-17-69H626L576,240H743l-18-70H561L518-16H435l44,186H282L240-16H157ZM297,240H494l53,219H348L297,240Z" />
      <glyph unicode="$" glyph-name="gid218" horiz-adv-x="549" d="M251-153L250-15q-33,3-69.5,15T116,29l4-41H58V207h45q8-89 56.5-131T284,34q57,0 91.5,33T410,151q0,41-23.5,68.5T326,268t-79,41q-50,24-95,53.5t-73.5,71T50,536q0,26 9.5,56T91,650t59.5,46T243,716V834h67l-1-121q27-4 52-13.5T410,672l-4,42h60V491H419q-5,50-21.5,90T348,644t-88,23q-37,0-62-15t-38-39.5T147,559q0-35 19-61t52.5-47.5T297,407q38-19 75.5-40t69-47t50-61.5T510,175T488.5,86T424,18T316-15V-153H251Z" />
      <glyph unicode="%" glyph-name="gid241" horiz-adv-x="881" d="M174-17L125,27L691,716l54-49L174-17Zm47,349q-59,0-100.5,27t-62,70T38,520q0,47 21,91.5t62,74T221,716q62,2 103-25.5t61.5-71T406,530q0-52-25-97t-66.5-73T221,332Zm3,50q33,0 51,20.5T300.5,454t7.5,60q0,22-4,48t-14,49.5t-26.5,38T221,664q-32,0-50.5-22T144,589t-8-59q0-20 4-45.5T153.5,436T180,397.5T224,382ZM662-16q-62-1-103.5,26.5T496,81t-21,90q0,51 24,95.5t66,73T661,368q60,1 101-26.5T824,271t21-91T822.5,87t-63-73.5T662-16Zm2,51q32,0 49.5,21T739,108.5t8,59.5q0,21-4,47t-13.5,49t-27,38T659,317q-32,0-51-21t-26.5-51T574,187q0-23 4.5-49.5t14.5-50t27.5-38T664,35Z" />
      <glyph unicode="&amp;" glyph-name="gid204" horiz-adv-x="687" d="M268-16q-44,0-86,10.5t-76,34t-54,60T32,177q0,65 43,115.5T188,372q-29,36-46,66.5T117.5,498T110,556q1,74 53,117t134,43q52,0 90-19.5T446,644t21-74q0-38-17.5-73T397,431.5T309,373q20-20 49.5-51T422,257.5T487,195q4,16 6,31t2,28q0,25-6.5,45.5t-21,33T427,346v44H599V337l-73,4q12-13 17.5-32t6.5-44q1-22-4-50.5T530,156q9-8 18.5-16.5T569,122q43-38 75-58t50-20V0H596q-9,0-39,17.5T481,74q-35-38-87.5-64T268-16Zm18,57q55-1 93,18t63,49q-9,8-17.5,16.5T406,141q-64,62-110,108t-81,85q-27-18-42.5-43.5t-22-51T144,195q0-52 19.5-85.5t52-50.5T286,41Zm-6,365q50,35 74,79.5T378,570q0,44-22.5,72.5T292,671q-36,0-61-28t-25-80q0-38 21-79.5T280,406Z" />
      <glyph unicode="&apos;" glyph-name="gid202" horiz-adv-x="201" d="M65,491L55,716h91l-9-225H65Z" />
      <glyph unicode="(" glyph-name="gid185" horiz-adv-x="302" d="M258,760l29-27q-31-41-54.5-89T192,544.5t-27-104t-15.5-104T144,239t5.5-96.5T165,41.5t27-101t40.5-97T287-244l-28-27q-37,34-77,86.5T108-65T53,79T32,239T53,401t55,148t73.5,123T258,760Z" />
      <glyph unicode=")" glyph-name="gid186" horiz-adv-x="302" d="M44-271L15-244q31,41 55,89t40.5,99.5t27,104t15.5,104t5,97.5t-5,96.5t-15.5,101t-27,101T70,645.5T15,733l29,27q37-34 77-86.5T195,554t55-144t21-160T250,88T195-60T121-183T44-271Z" />
      <glyph unicode="*" glyph-name="gid169" horiz-adv-x="524" d="M127,300q-15,12-16,27t6.5,30.5T135,386q20,22 44.5,46T233,477q-36,1-71,6.5T99,495q-16,4-31.5,11.5t-23,20T43,558q10,28 35,27.5T126,575q27-12 58-27.5T244,511q-11,34-16.5,69T220,644q-2,17 1,33.5T233.5,705T262,716q20,0 29-11t11.5-27.5T304,644q-3-29-8.5-64T279,511q30,21 60.5,36.5T397,575q15,7 32,9.5t31-3T480,558q9-28-11-42.5T425,495q-29-6-63.5-11.5T291,477q28-22 53-45.5T388,386q11-12 19-28t7-31t-17-27q-15-11-29-7.5T342,308t-21,25q-15,25-31,57.5T262,456q-12-33-28-65.5T203,333q-8-13-20-25t-26-15.5T127,300Z" />
      <glyph unicode="+" glyph-name="gid229" horiz-adv-x="530" d="M42,393H488V334H42v59ZM295,583V137H235V583h60Z" />
      <glyph unicode="," glyph-name="gid159" horiz-adv-x="252" d="M117-182L86-159q11,14 23.5,40t21,57.5T136,0q-7-3-12.5-4T112-5Q91-5 75,9.5T59,49q0,29 17.5,46.5T119,113q39,0 58.5-27.5T197,17q0-27-9.5-63T160-117.5T117-182Z" />
      <glyph unicode="-" glyph-name="gid181" horiz-adv-x="483" d="M62,277v82H421V280L62,277Z" />
      <glyph unicode="." glyph-name="gid158" horiz-adv-x="242" d="M121-16Q94-16 75.5,4T57,53q0,28 19.5,48.5T121,122q27,0 45-20.5T184,53q0-29-18.5-49T121-16Z" />
      <glyph unicode="/" glyph-name="gid171" horiz-adv-x="693" d="M87-271L22-230L598,758l73-46L87-271Z" />
      <glyph unicode="0" glyph-name="gid126" horiz-adv-x="626" d="M313-16q-76,0-127,32.5t-80,86T64.5,220T52,347T67.5,475T115,594.5t82,88T317,716q73,0 122.5-33T519,596.5T562,479t13-127q0-62-15-127T513.5,105.5t-81-88T313-16Zm6,50q41,0 67,25t41.5,68T449,223t6,108q0,61-6,120.5T427.5,560T385,638t-70,29q-40,0-68-25t-44.5-68t-24-96.5T171,368q0-42 3.5-88t13-90t26-79T256,55t63-21Z" />
      <glyph unicode="1" glyph-name="gid127" horiz-adv-x="378" d="M76,0V44q31,2 48.5,13T150,90.5t8,58.5l-2,448L39,524L14,564L220,716h43l1-589q0-21-0.5-41.5T261,51q19,2 41,2.5T342,55V0H76Z" />
      <glyph unicode="2" glyph-name="gid128" horiz-adv-x="536" d="M44,0q0,53 15.5,94T101,169t59,65t67,64q68,64 97.5,117.5T354,520q0,36-10,69.5T309,645t-69,21q-37,0-65.5-17.5T135,605q11-10 15-23t4-24q0-9-5.5-21.5T131,515t-32-9q-25,1-38.5,18.5T47,567q0,21 13,47t40,49t66.5,38T259,716q40,0 78-9.5t69-31T455,619t18-87q0-25-10-53.5T429.5,417T367,345t-98-87q-63-52-101-97.5T124,85l183-5q41-1 71.5,1t48,16.5T444,148h41L478,0H44Z" />
      <glyph unicode="3" glyph-name="gid129" horiz-adv-x="558" d="M254-16Q181-16 133.5,6t-70,54.5T41,124q0,25 14,43t39,19q21,1 32.5-8t16-21t4.5-23q0-10-3-20.5T135,92q10-29 42-42.5T246,36q68,0 107,39t39,107q0,40-13.5,78T329,322T225,344q-8,0-20-0.5T183,342v54q10,0 19,0t18,0q50,0 80.5,21T345,469.5T359,532q1,39-9.5,69.5t-34.5,48T249,667q-39,0-67.5-20T145,605q9-11 12.5-22.5T161,561q0-9-5.5-21.5t-17-20.5T107,511q-24,0-36.5,17T58,569q0,29 22,63t68,59t116,25q56,0 103.5-17t76-55.5T472,541q0-29-15-61t-49.5-59T313,377q95-12 146.5-63.5T511,189q0-68-35-113.5T382.5,7T254-16Z" />
      <glyph unicode="4" glyph-name="gid130" horiz-adv-x="544" d="M410,127q0-22-0.5-42.5T406,50q19,1 39.5,1.5T482,53V0H220V44h7q30,2 47,14.5T298,95t7,62v32H12v64L368,716h42V259l100-1V189H410V127ZM303,551L87,263l218-2V551h-2Z" />
      <glyph unicode="5" glyph-name="gid131" horiz-adv-x="543" d="M253-16Q188-16 143,5.5t-69.5,53T49,120q0,25 14,43t39,19q21,1 32.5-7.5t16-20.5t4.5-23q0-9-2.5-19.5T144,91q5-19 23-32.5T209,39t44-5q46,1 74,24.5T368.5,118T382,194q0,26-4,58.5t-18,62t-43,49T239,383q-16,0-39-4t-46.5-12T111,347L78,375L75,700H334q50,0 71,14t21,51h39l-6-142l-328-7V410q24,10 61,18.5t76,8.5q62,0 106.5-19t73-51t42-72T503,213q0-75-35.5-126.5T375,9.5T253-16Z" />
      <glyph unicode="6" glyph-name="gid132" horiz-adv-x="577" d="M292-16q-89,0-141.5,42t-75,119T53,327q0,35 6.5,85T83,514.5T130.5,613T209,687.5T325,716q61,0 100.5-21.5t59-51T504,587q0-23-12.5-40T454,528q-29,0-40.5,17T402,577q0,10 3,21.5T415,620q-6,16-29.5,32.5T326,668q-40-1-68-22.5t-46-56T184,514t-14.5-80T164,365q15,19 37.5,36T254,429t64,11q59,1 99.5-18.5t65.5-52t36-73T530,214q0-63-31-115.5T414.5,15T292-16Zm3,49q43,0 69,22.5T401,114t11,77q0,26-4,59t-16,63.5t-35.5,50T295,383q-28,0-54.5-13T194,335t-30-47q2-44 9.5-88.5t22.5-82t39.5-61T295,33Z" />
      <glyph unicode="7" glyph-name="gid133" horiz-adv-x="464" d="M197-16q-23,1-32.5,15T155,33q0,21 10.5,54.5T192,160t30,73q18,45 42.5,107T320,474t65,146H139q-38,0-60-17T57,545H20l2,155H443V624q-35-73-61-140T335.5,350t-39-140.5T257,50q-6-25-20.5-46T197-16Z" />
      <glyph unicode="8" glyph-name="gid134" horiz-adv-x="565" d="M278-16q-35,0-73.5,8.5T133,20.5t-54,52T58,153q0,42 21,79t54,67t70,52q-72,45-102,92T71,532q0,47 19,82t51,57.5T211.5,705T288,716q51,0 96.5-19t74-55.5T487,552q0-37-18.5-69.5t-48-58T357,381q47-28 83.5-61.5t57-72T518,168q0-64-33.5-104.5T396,3.5T278-16Zm2,50q59-1 92,30.5T405,148q0,48-33.5,94.5T252,327q-50-37-72.5-81T155,168q-4-58 31-95.5T280,34Zm32,374q40,28 63,64.5T399,543q2,60-28.5,91.5T292,667q-36,0-61-15.5t-38-41T180,556q0-50 38.5-89T312,408Z" />
      <glyph unicode="9" glyph-name="gid135" horiz-adv-x="577" d="M256-16Q191-16 150.5,3.5T92,52T74,110q0,23 13,41t38,19q29,0 40.5-17.5T177,120q0-9-3.5-20.5T163,78q7-18 28.5-31.5T253,33q41,1 69,20.5t45.5,52t27.5,72T408.5,258t2.5,76q-22-29-62-51.5T257,259q-58,0-98.5,19t-65,52t-36,73T46,486q0,65 29.5,117.5t83,82.5T284,716q70,0 115.5-26.5t72.5-74T510.5,504T522,365q0-44-5.5-95.5T495,168T449.5,76.5t-77-67T256-16Zm25,332q28,0 54,13.5t46.5,35T411,411q-2,48-9,93t-22,82t-39.5,59T279,667q-39,0-65-22.5t-38.5-59T163,508q0-26 4-59t16-63.5t35.5-50T281,316Z" />
      <glyph unicode=":" glyph-name="gid160" horiz-adv-x="250" d="M125-16Q98-16 79.5,4T61,53q0,28 19.5,48.5T125,122q27,0 45-20.5T188,53q0-29-18.5-49T125-16Zm0,403q-27,0-45.5,20T61,456q0,28 19.5,48.5T125,525q27,0 45-20.5T188,456q0-29-18.5-49T125,387Z" />
      <glyph unicode=";" glyph-name="gid161" horiz-adv-x="264" d="M122-182L91-159q11,14 23.5,40t21,57.5T141,0q-7-3-12.5-4T117-5Q96-5 80,9.5T64,49q0,29 17.5,46.5T124,113q39,0 58.5-27.5T202,17q0-27-9.5-63T165-117.5T122-182Zm10,569q-27,0-45.5,20T68,456q0,28 19.5,48.5T132,525q27,0 45-20.5T195,456q0-29-18.5-49T132,387Z" />
      <glyph unicode="&lt;" glyph-name="gid235" horiz-adv-x="530" d="M483,81L36,275v75L483,548V474L124,316L483,157V81Z" />
      <glyph unicode="=" glyph-name="gid233" horiz-adv-x="530" d="M42,474H488V415H42v59Zm0-159H488V256H42v59Z" />
      <glyph unicode="&gt;" glyph-name="gid234" horiz-adv-x="530" d="M41,548L488,354V279L41,81v74L400,313L41,472v76Z" />
      <glyph unicode="?" glyph-name="gid165" horiz-adv-x="484" d="M230,186q-30,0-56.5,15T147,253q0,21 11,38.5T189,329t47,44q37,33 66,72t30,97q1,35-9,63t-34,45t-67,17q-24,0-45.5-9t-35-22.5T123,609q7-9 10.5-20.5T137,566q0-9-5.5-21.5t-17-21T84,515q-25,2-37.5,18T34,574q0,31 25.5,64t71,55.5T238,716q79,0 124-25t64-64t18-80q-2-41-24.5-75t-55-62.5t-64-52t-53.5-45T225,271q0-12 9.5-22T267,239q7,0 16,1.5t18,4.5l13-40q-19-10-42.5-14.5T230,186Zm7-202q-23,0-41.5,18T177,49q0,27 18.5,46.5T237,115q26,0 43-19.5T297,49T279.5,3T237-16Z" />
      <glyph unicode="@" glyph-name="gid203" horiz-adv-x="795" d="M417-96q-92-2-161,25.5T141,6.5t-69,114T49,257q0,63 22,128t66,121t111,91.5T405,636q87,4 152-23t108-74.5t65-106T751,313q0-73-22-122t-55-77T606,75t-62-7q-29,4-46,17.5T473.5,120T466,169t4,60q-30-83-67-120T324,72q-41,0-73.5,33.5T218,213q0,53 15,101.5T278,401t73.5,60T452,483q22,0 53-3.5T563,467q-4-34-8.5-71t-9-72.5t-8-67T533,202q-2-22 0.5-43T544,123.5T569,106q24-2 44,11t34.5,39t23,60.5T680,289q2,111-35.5,179.5T542.5,568T398,594q-63-3-113-31.5t-85.5-74t-54-104T127,263q0-80 23.5-138.5t65-97.5T310-31T420-51q37-1 79.5,7t84,29.5T659,46l23-26Q632-37 564-65.5T417-96ZM345,120q24,0 48,31t43.5,79.5t32,104T481,439q-10,4-24,6t-29,1q-32,0-56.5-21.5t-41-55T306,296t-8-78q0-45 12.5-71.5T345,120Z" />
      <glyph unicode="A" glyph-name="gid1" horiz-adv-x="640" d="M-3,0V45q30,0 46,16t27,43.5T94,166L296,719h40L555,158q8-19 18-51.5T582,51q17,2 33.5,2.5T647,55V0H404V44q35,1 46.5,15.5t9,35.5T449,137l-30,81l-245-6l-29-87q-6-20-13-38T118,52q18,2 38.5,2.5T193,56V0H-3ZM192,266H402L339,435q-12,33-23,65.5T296,563h-1q-8-25-18-55t-23-65L192,266Z" />
      <glyph unicode="B" glyph-name="gid10" horiz-adv-x="635" d="M53,0V44q33,1 47.5,13.5T119,95t4,63V566q0,27 1,48.5t2,34.5q-17-1-37-2t-36-2v55q60,1 120,1.5T296,702q118,0 185-42.5T545,527q-1-31-18.5-61.5t-52.5-54T387,377v-2q107-5 160-55.5T600,197q0-62-31.5-106.5T483.5,23T361,0H53ZM226,50q17,0 37-0.5T301.5,49T329,49q72,1 113,39t41,106q0,56-22.5,87.5T402,326t-77,13q-28,0-50.5-0.5T229,337V132q0-27-0.5-48T226,50Zm3,336l66,2q52,1 82.5,22T421,464t12,69q0,50-21,76t-52,36t-61,10q-28,0-43-8t-21-27.5T229,562V386Z" />
      <glyph unicode="C" glyph-name="gid11" horiz-adv-x="695" d="M594,477q-11,90-62,138.5T399,665q-52,0-96-23t-76-64.5t-49.5-98T160,356q0-91 32-161.5T280.5,85T409,46q64,0 126.5,30.5T639,163l33-28q-45-62-96-95T474.5-4.5T383-16q-75,0-138,27T136.5,86.5t-70,113T42,339q0,70 22,137t65,121.5T237.5,684T390,716q51,0 99.5-14T583,659l-5,50h62V477H594Z" />
      <glyph unicode="D" glyph-name="gid13" horiz-adv-x="750" d="M53,44q33,2 47.5,14T119,94t4,61V571q0,22 1,42.5t2,35.5q-17-1-37-2t-36-2v55l255,1q93,0 167-24t126-69.5T680,497t27-145q0-67-23-130T613.5,109.5T494,30T324,0H53V44Zm176,89q0-27-0.5-48T226,51q21,0 42-0.5T305.5,50T329,50q62,0 110,23t81.5,64t51,95T589,347q0,98-32,166T460.5,617T300,654q-33,0-48-11.5T233,607t-4-61V133Z" />
      <glyph unicode="E" glyph-name="gid15" horiz-adv-x="623" d="M399,253q0,43-12.5,62T349,338.5T287,341l-58-2V131q0-27-0.5-47.5T226,50l172,2q39,1 70,14.5T517,113t18,90h44L573,0H53V44q33,2 47.5,14T119,94t4,61V571q0,22 1,42.5t2,35.5q-17-1-37-2t-36-2v55H541l5-181H502q0,57-18.5,87t-48,40T372,655l-70-2q-31,0-47-10.5t-21-34T229,545V388H394l-6,86h55V253H399Z" />
      <glyph unicode="F" glyph-name="gid20" horiz-adv-x="556" d="M53,0V44q33,2 47.5,14T119,94t4,61V571q0,22 1,42.5t2,35.5q-17-1-37-2t-36-2v55H529l6-181H491q0,57-19,87t-49,40t-65,9l-60-2q-32,0-46.5-13T233,603t-4-61V370l151-1l-6,87h55V234H385q0,44-12.5,63T335,320t-62,3l-44-2V134q0-27-0.5-48.5T226,51q15,1 32.5,1.5T293,54t31,1V0H53Z" />
      <glyph unicode="G" glyph-name="gid21" horiz-adv-x="759" d="M383-16Q281-16 204,28T85,151.5T43,337q0,70 21.5,137t65,122t109,87.5T391,716q33,0 69-6t70.5-18T593,663l-4,46h62V479H605q-5,60-33.5,101.5t-73,63T400,665q-53,0-96.5-23.5t-75.5-65T178.5,479T161,359q0-92 30.5-163.5T278,83T409,42q24,0 52.5,4.5t57,14T570,85V197q0,25 0.5,49.5T571,292q-16-1-36-2t-35-2v55H739V299q-24,0-38.5-11t-21-27.5t-8.5-35T669,191V35H643q-21,0-49-6.5T531,9Q500-2 460-9t-77-7Z" />
      <glyph unicode="H" glyph-name="gid22" horiz-adv-x="789" d="M53,0V44q33,2 47.5,14T119,94t4,61V571q0,22 1,42.5t2,35.5q-17-1-37-2t-36-2v55H299V656q-32-1-47-13.5t-19-36T229,545V382H560V571q0,22 1,42.5t2,35.5q-17-1-37-2t-36-2v55H736V656q-32-1-47-13.5t-19-36T666,545V134q0-27-0.5-48.5T663,51q17,2 37,2.5T736,55V0H490V44q33,2 47.5,14T556,94t4,61V330l-331-3V134q0-27-0.5-48.5T226,51q17,2 37.5,2.5T299,55V0H53Z" />
      <glyph unicode="I" glyph-name="gid23" horiz-adv-x="352" d="M299,656q-32-1-47-13.5t-19-36T229,545V134q0-27-0.5-48.5T226,51q17,2 37.5,2.5T299,55V0H53V44q33,2 47.5,14T119,94t4,61V571q0,22 1,42.5t2,35.5q-17-1-37-2t-36-2v55H299V656Z" />
      <glyph unicode="J" glyph-name="gid28" horiz-adv-x="399" d="M117-16Q86-16 59-5.5t-43.5,29T-1,67q0,24 13,42.5T51,129q29,2 41-15t12-36q0-5-1.5-12.5T98,51q6-10 18-13t19-3q27,1 40.5,24.5T189,138V559q0,25 0,48t1,42q-22-1-47-2t-46-2v55H370V656q-29,0-45.5-10.5t-23-31.5T295,561V247q0-142-43.5-202.5T117-16Z" />
      <glyph unicode="K" glyph-name="gid29" horiz-adv-x="693" d="M53,0V44q33,2 47.5,14T119,94t4,61V571q0,22 1,42.5t2,35.5q-17-1-37-2t-36-2v55H299V656q-32-1-47-13.5t-19-36T229,545V385h74L412,560q15,23 34,49t36,41q-15-1-31.5-1.5T421,647v53H646V656q-36-2-66.5-12T520,609t-61-77L362,377q26-16 43-36t33-41L547,153q32-43 55.5-67T647,53t42-9V0H556q-9,0-26,15T493.5,53T456,99L343,255q-17,23-34.5,45T274,332H229V134q0-27-0.5-48.5T226,51q17,2 37.5,2.5T299,55V0H53Z" />
      <glyph unicode="L" glyph-name="gid30" horiz-adv-x="587" d="M53,0V44q33,2 47.5,14T119,94t4,61V571q0,22 1,42.5t2,35.5q-17-1-37-2t-36-2v55H299V656q-32-1-47-13.5t-19-36T229,545V131q0-27-0.5-47.5T226,50l169,2q62,1 95,40.5T523,218h45L562,0H53Z" />
      <glyph unicode="M" glyph-name="gid31" horiz-adv-x="936" d="M424-10q-41,94-82,188T261,367q-12,28-25,61t-26,70t-25,75q0-26 0-50t0-46q-1-31-2-72.5T180.5,317t-2-91.5T177,138q0-24-1-47t-3-40q18,2 38.5,2.5T248,55V0H45V44q28,1 43,11t20.5,30t6.5,49l14,432q1,22 2,44t2,39q-18-1-38-1.5T60,646v54H235L400,306q12-27 24-57.5t24.5-60T471,133h2q11,30 25,66t24,64q43,108 87.5,216T697,700H873V656q-24,0-40.5-8.5t-24-30.5T803,554l22-431q2-20 1.5-39T825,52q18,1 38.5,1.5T899,55V0H657V44q29,1 44.5,12T722,90.5t3,61.5L709,443q-1,15-2,35.5t-2.5,43T702,565q-3-7-6-14.5T690,534L475-10H424Z" />
      <glyph unicode="N" glyph-name="gid32" horiz-adv-x="766" d="M595-14L223,480q-11,13-21,27t-21,29h-1l3-389q0-25-0.5-50T180,51q17,2 37.5,2.5T253,55V0H55V44q28,0 42.5,11t20,29t5.5,42V574q0,20 0,40t1,35q-16-1-35.5-2T54,645v55H186L538,237q17-22 30.5-41T595,160h1l1,411q0,22 1,42.5t2,35.5q-18-1-38-2t-35-2v55H725V656q-32-1-46.5-13.5t-18-36T657,545L656-14H595Z" />
      <glyph unicode="O" glyph-name="gid34" horiz-adv-x="786" d="M396-16q-95,0-162.5,32T124,101.5T62,220T42,350q0,63 21.5,127.5t65,118.5t109,87T391,716q92,0 158.5-33T659,595.5T723.5,477T745,350q0-62-21.5-126.5t-65-119T550,17T396-16Zm5,52q58,0 100.5,26t70,69.5t40.5,96T625,332q0,64-15,123.5t-45.5,107t-75.5,75T385,665q-58,0-101-27t-70-70.5t-40.5-96T160,366q0-52 14-110t43-108t74.5-81T401,36Z" />
      <glyph unicode="P" glyph-name="gid42" horiz-adv-x="617" d="M53,44q33,2 47.5,14T119,94t4,61V571q0,22 1,42.5t2,35.5q-17-1-37-2t-36-2v55q59,1 120,1.5T297,702q94,0 159.5-22.5t101-68T594,497q1-39-14-80.5t-51-77T431.5,282T277,260q-10-1-22.5-1T229,260V134q0-27-0.5-48.5T226,51q14,1 30,2t31.5,1.5T316,56V0H53V44ZM229,313q17-2 29.5-2.5T288,310q56,0 99,21t67,61t24,95q0,48-14.5,80.5t-40,51T365,645t-70,8q-30,0-44-12t-18-35t-4-59V313Z" />
      <glyph unicode="Q" glyph-name="gid44" horiz-adv-x="787" d="M753-218q-39,0-66,3t-50.5,14.5T583-163q-44,40-74.5,73.5T450.5-36T388-16q-93,1-158.5,33.5t-107,86T62,221.5T43,350q0,63 21,127.5T128.5,596t109,87T392,716q91,0 158-33t110-87.5T724,477t21-127q0-53-16-108T682,137.5T603.5,51T492-3q26,0 48-4.5t44.5-17T635-64q35-32 58-53.5T731.5-151T760-168.5t29-5.5v-44H753ZM401,36q58,0 100.5,26t70,69.5t41,96T626,332q0,64-15.5,123.5t-46,107t-75.5,75T385,665q-58,0-101-27t-70-70.5t-40.5-96T160,366q0-52 14-110t43-108t74.5-81T401,36Z" />
      <glyph unicode="R" glyph-name="gid45" horiz-adv-x="647" d="M53,0V44q33,2 47.5,14T119,94t4,61V571q0,22 1,42.5t2,35.5q-17-1-37-2t-36-2v55q61,1 123,1.5T301,701q94,0 155-21.5T547.5,616T577,510q1-40-16-79.5T504,360T394,313q20-12 36-33t33-47l61-94q19-30 35-51t36-32.5T643,44V0H504q-26,22-44.5,47.5T420,105L351,217q-13,20-27.5,43T292,299q-16,0-31.5,0T229,299V134q0-27-0.5-48.5T226,51q12,1 25.5,1.5t27,1.5T302,55V0H53ZM287,348q55,1 94,17.5t60,51T462,506q0,41-12,69t-34,45.5t-52.5,25T298,653q-32,0-46.5-12T233,606t-4-59V351q15-1 28.5-2.5T287,348Z" />
      <glyph unicode="S" glyph-name="gid46" horiz-adv-x="577" d="M450,484q-5,51-26,92t-58,65.5T274,665q-56,0-89-31t-33-75q0-39 22-65.5T233.5,446T318,404q38-16 77-36t71-45.5t51-61T536,178q0-56-29-100T424.5,9T295-16q-43,0-90.5,13T118,34l5-42H62L58,212h48q8-87 62.5-131.5T299,36q38,0 69,14t49,40t18,61q0,41-24.5,69t-62,48T270,306t-79.5,38T121,390T72,451.5T54,535q0,28 10,59t34,59t65.5,45.5T268,716q38,0 85.5-11T440,666l-4,42h60V484H450Z" />
      <glyph unicode="T" glyph-name="gid47" horiz-adv-x="643" d="M575,484q-1,57-13,95t-39.5,57T447,654H375l-1-520q0-27-0.5-48.5T371,51q19,2 41.5,2.5T453,55V0H199V44q33,2 47,14t18,36.5t4,60.5V653l-84-1q-61,0-89-41T67,484H20l6,216H616l6-216H575Z" />
      <glyph unicode="U" glyph-name="gid48" horiz-adv-x="755" d="M274,656q-29,0-44-11t-20-29.5T205,574V315q0-59 9.5-107.5t31-84t59-55.5T396,47q67,0 110,30t64.5,86T593,296l2,275q0,22 1,42.5t2,35.5q-17-1-37-2t-36-2v55H727V656q-33-1-47.5-13.5t-18.5-36T656,545l-1-238q0-72-16.5-131.5T588.5,73t-85-66T382-16Q301-16 246,6T158.5,71.5T112,178.5T98,325V541q0,27 1.5,59t2.5,49q-17-1-37-1.5T29,646v54H274V656Z" />
      <glyph unicode="V" glyph-name="gid53" horiz-adv-x="671" d="M321-9L93,525q-18,42-27,72T55,647q-14-1-28-1T0,645v55H253l-1-45q-45-1-58.5-25t6.5-72q23-58 45.5-114T294,327q21-51 40-96t33-80h1q11,33 23,66.5T418,292q24,68 42,118t32,89t25,70q8,23 16.5,44.5T550,649q-18-1-39-2t-38-2v55H683V656q-40-2-64-24t-44-77q-7-18-14.5-38.5t-18-48T518,402t-34.5-95.5T434.5,173T367-9H321Z" />
      <glyph unicode="W" glyph-name="gid54" horiz-adv-x="1002" d="M280-9L102,526q-15,45-23.5,73T67,647q-16-1-30-1T9,645v55H269V656q-51-2-64.5-22t1.5-76q17-63 35-117t36-114q12-41 24.5-76.5T327,168h1q5,16 11.5,38T353,251.5t13,43t9,29.5q24,76 47.5,149T465,605t29,96h52q10-37 26.5-86.5t33.5-102t33-101T666,327q13-41 26.5-82.5T717,159h2q9,30 19.5,63.5T759,291q20,58 33.5,100T815,464t16.5,56T847,569q6,19 14,40.5T881,648q-19-1-40.5-1.5T802,645v55h210V656q-30-3-49.5-14T928,603.5T894,522q-44-135-86.5-267T720-9H670L530,400q-11,30-19.5,59.5T494,517q-7-28-15-55.5T462,406L329-9H280Z" />
      <glyph unicode="X" glyph-name="gid55" horiz-adv-x="666" d="M20,0V44q41,9 69,38t63,78L278,335q-60,82-99,135.5T111,561q-18,27-28.5,46.5T64,647q-14-1-27-1t-26-1v55H285V656l-33-1q-34-1-43-12.5T206.5,614T226,578q19-29 49-70t63-87l89,128q25,33 44.5,59.5T506,649q-19-1-41-2t-40-2v55H632V656q-29-4-55-23t-49.5-47T481,526L373,375q35-45 68.5-88.5T504,205t49-65q17-22 33.5-44T617,53q15,1 27,1t25,1V0H406V44q38-1 50,10t7,27.5T445,115q-24,32-58.5,75.5T313,288q-24-34-47.5-68.5T218,149q-19-27-36-51T145,51q19,1 40,2t39,2V0H20Z" />
      <glyph unicode="Y" glyph-name="gid56" horiz-adv-x="645" d="M211,0V44q33,2 47,14t18,36.5t4,60.5l1,105L103,540q-21,35-33.5,62T55,647q-16-1-30-1t-28-1v55H267V656q-40,1-58.5-11T192,610.5T212,558l79-126q8-12 18-28t20.5-32.5T349,338h2q9,19 20.5,40.5T395,426l74,141q5,10 13,25t17.5,30.5T519,648q-18-1-39.5-1.5T441,645v55H650V656q-44-4-73.5-32.5T514,534q-33-63-65-123.5T387,292q0-16-0.5-41T386,201t0-43.5t0-23.5q0-27-0.5-48.5T383,51q20,2 42.5,2.5T465,55V0H211Z" />
      <glyph unicode="Z" glyph-name="gid58" horiz-adv-x="608" d="M42,0V56q62,90 145.5,212T378,559q16,25 31.5,48T444,652l-227-1q-57-1-89-38.5T96,491H52l6,209H558V652L223,143q-22-32-39-54.5T149,48l223,1q62,1 103.5,38.5T517,208h45L556,0H42Z" />
      <glyph unicode="[" glyph-name="gid189" horiz-adv-x="368" d="M73-255L74,755H358V691l-191-3l-4-876l197-3v-64H73Z" />
      <glyph unicode="\" glyph-name="gid172" horiz-adv-x="693" d="M607-271L22,712l74,46L671-230l-64-41Z" />
      <glyph unicode="]" glyph-name="gid190" horiz-adv-x="368" d="M295,755L294-255H10v64l191,3l4,876L8,691v64H295Z" />
      <glyph unicode="^" glyph-name="gid239" horiz-adv-x="823" d="M659,437L409,668L158,441H60L368,716h89L763,437H659Z" />
      <glyph unicode="_" glyph-name="gid184" horiz-adv-x="763" d="M74-126v76l615-4v-72H74Z" />
      <glyph unicode="`" glyph-name="gid273" horiz-adv-x="343" d="M220,575L105,681q-17,16-21,32t0.5,29T97,761q7,6 19.5,9t27-2.5T171,741l83-137l-34-29Z" />
      <glyph unicode="a" glyph-name="gid59" horiz-adv-x="519" d="M338,0q-2,16-3,28t-3,25Q298,19 259,1.5T178-16Q106-16 69.5,19.5T33,108q0,46 27,80t71,55.5t96,32T329,286v59q0,32-6,59.5t-24.5,45T241,467q-26,1-52-9.5T149,423q8-8 10.5-18.5T162,385q0-14-12-31.5T109,337q-24,0-36.5,16.5T60,392q0,36 26.5,64T159,500t103,16q86,0 128.5-45T433,329q0-36 0-69t-0.5-66T432,124q0-15-1-34t-3-40q17,1 35,2t34,1V0H338Zm-9,240q-32-2-65.5-9T203,210t-43.5-36T143,121q2-34 22.5-50T214,55q35,0 62,13.5T329,106q-1,11-1,22.5t0,24.5q0,9 0.5,33.5T329,240Z" />
      <glyph unicode="b" glyph-name="gid67" horiz-adv-x="579" d="M72,605q0,17 0.5,34.5T75,677q-18-1-36.5-1.5T4,674v53q45,0 72,4.5T117.5,742T139,755h37V459q30,28 67.5,42.5T322,516q62,0 111.5-31t78-88T540,262q0-83-34.5-146T414,18.5T286-16q-32,0-72.5,12T140,45L114,0H70l2,605ZM176,155q0-47 15-72.5t38.5-36T279,36q47-1 79,26t48.5,73.5T423,241q0,60-15,108t-46,76.5T284,453q-31,0-59.5-14T176,401V155Z" />
      <glyph unicode="c" glyph-name="gid68" horiz-adv-x="527" d="M284-16q-67,0-123,30.5T71.5,102T38,240q0,54 19,103.5T110.5,432t82,61.5T298,516q59,0 101-18t64.5-47T486,388q0-24-14-42t-40-18q-29-1-41,17.5T379,380q0,9 3,20.5T393,421q-8,21-26,31t-37,13t-32,3q-61-1-102.5-52.5T154,267q0-62 18.5-111T227,78t86-30q45,0 87,23.5T468,131l32-28q-29-45-66.5-71t-76-37T284-16Z" />
      <glyph unicode="d" glyph-name="gid70" horiz-adv-x="597" d="M250-16q-61,0-108.5,30.5T66.5,102T39,236q0,82 32,145t90,99t132,36q31,0 59.5-7.5T400,491V605q0,15 1,33.5t3,38.5q-18-1-37-2t-34-1v53q45,0 71.5,4.5t41,10.5T467,755h37V124q0-15-1-34t-3-40q18,1 36,2t33,1V0H410q-2,14-3.5,26T404,50Q374,18 335,1T250-16Zm41,63q31,0 60.5,17T400,107q0,13 0,27t0,30V436q-19,14-44.5,21.5T303,465q-49,0-82.5-28.5T171,359T156,247q2-54 17-100t44.5-73T291,47Z" />
      <glyph unicode="e" glyph-name="gid72" horiz-adv-x="541" d="M283-16q-70,0-125.5,32.5T70,108.5T38,249q0,70 31.5,131T158,478.5T290,516q42,0 79.5-13t67-40.5t46.5-71T500,286l-344-6q0-68 15.5-121T222,77t91-29q27,0 57.5,9.5t58,27.5T475,128l31-27q-30-45-69-70.5t-79.5-36T283-16ZM160,332H391q0,38-10.5,68.5T348,449t-56,18q-53,0-87-33.5T160,332Z" />
      <glyph unicode="f" glyph-name="gid77" horiz-adv-x="348" d="M106,524q0,114 44.5,174T291,758q30,0 56-9.5t42-27T405,680q0-22-12.5-37T357,627q-26-1-37.5,15T308,674q0,5 0.5,11t3.5,12q-7,8-17.5,11T275,711q-26,0-40-15t-20-38t-6-47V500H337V448l-127-3l1-320q0-18-1-37t-3-38q16,1 33.5,1.5T272,53V0H47V42q30,0 42,14t14.5,39t2.5,58V444l-79-2v58h79v24Z" />
      <glyph unicode="g" glyph-name="gid78" horiz-adv-x="554" d="M275-271q-88,0-141.5,19.5t-77,50T33-137q0,27 12.5,50T79-46.5T126-19Q91-8 73,12.5T55,63q0,32 25.5,63T154,168q-45,20-72,58T54,316q-1,60 30.5,105t81,70T269,516q31,0 64-8.5T393,481q11,29 29,53t42.5,38T516,586q29,0 44-15t15-40q0-8-4.5-19.5T555,492t-30-8q-16,0-28.5,10.5T481,520q-21-4-34.5-24.5T429,454q26-23 40.5-54.5T484,332q0-57-30.5-101T374,162T268,137q-17,0-32,2.5T203,142q-32,0-52.5-15T135,91q5-22 42-29T284,52q77-3 132.5-18.5t86-47.5T533-101q0-41-22.5-73t-60-53.5T367-260t-92-11Zm9,49q81,0 125.5,30T454-124q0,32-22,49.5t-61.5,25T278-41q-26,2-53,3t-50,5q-23-16-35.5-39T126-120q0-46 43-74t115-28ZM271,184q34,0 56.5,17.5t34,47T373,313q0,41-12,77t-35,58t-59,22q-49,0-76-39t-27-94q0-44 12.5-78.5T213,204t58-20Z" />
      <glyph unicode="h" glyph-name="gid79" horiz-adv-x="606" d="M356,42q30,0 42.5,14t15,39t2.5,58l-1,140q0,79-24.5,118.5T312,450q-33-1-64.5-16T195,396V124q0-18-1-36.5T191,50q16,1 32.5,1.5T254,53V0H31V42q30,0 42,14T88,95t3,58V605q0,17 0.5,34.5T94,677q-17-1-36-1.5T23,674v53q45,0 72,4.5T136.5,742T158,755h37V453q22,18 49,32t55.5,22.5T353,516q89,0 127.5-54T520,293V124q0-18-0.5-36.5T516,50q16,1 33,1.5T580,53V0H356V42Z" />
      <glyph unicode="i" glyph-name="gid80" horiz-adv-x="296" d="M43,42q30,0 42,14T99.5,95t2.5,58V360q0,17 1,34.5t3,37.5q-17-1-36-1.5T35,429v53q45,0 71.5,4.5t41,10.5T169,510h38V124q0-18-1-36.5T203,50q16,1 32.5,1.5T266,53V0H43V42ZM149,602q-26,0-44,19.5T87,669t19,47.5T149,736q26,0 43.5-19.5T210,669t-17.5-47.5T149,602Z" />
      <glyph unicode="j" glyph-name="gid87" horiz-adv-x="275" d="M1-271q-46,0-67.5,20T-88-206q0,20 13,36.5T-38-152q25,1 37-15t12-33q0-3 0-6t-1-6q11-5 23-5q26,0 38.5,18t17,45.5T93-99V360q0,17 1,34.5T97,432q-18-1-36.5-1.5T26,429v53q45,0 72,4.5T139.5,497T161,510h37V-1q0-93-26-153t-70.5-88.5T1-271ZM142,602q-26,0-44,19.5T80,669t19,47.5T142,736q26,0 43.5-19.5T203,669t-17.5-47.5T142,602Z" />
      <glyph unicode="k" glyph-name="gid89" horiz-adv-x="556" d="M32,0V42q30,0 41.5,14t14,39T90,153l1,452q0,17 0.5,34.5T94,677q-17-1-36-1.5T24,674v53q44,0 70.5,4.5T136,742t21,13h38V288h43L343,401q16,16 28,28t24,21l-63-2v52H529V459q-35-4-63.5-20.5T414,401t-39-39l-74-78q19-9 33-22.5T364,227l70-90q5-6 16.5-21.5T478,83t33.5-29T545,42V0H446q-29,0-53.5,27T339,92q-24,32-44,60.5T258.5,204T230,240l-35-2V124q0-18-0.5-36.5T191,50q16,1 33,1.5T255,53V0H32Z" />
      <glyph unicode="l" glyph-name="gid90" horiz-adv-x="285" d="M31,42q30,0 42,14T87.5,95T90,153V605q0,17 0.5,34.5T93,677q-17-1-36-1.5T23,674v53q45,0 71.5,4.5t41,10.5T157,755h38V124q0-18-1-36.5T191,50q16,1 32.5,1.5T254,53V0H31V42Z" />
      <glyph unicode="m" glyph-name="gid91" horiz-adv-x="903" d="M43,0V42q30,0 42,14T99.5,95t2.5,58V361q0,16 0.5,34.5T106,432q-17-1-36-1.5T35,429v53q45,0 70.5,4.5t39,10.5T165,510h36q2-10 2.5-23.5T205,458q31,26 70.5,42T352,516q49,0 81.5-17.5T485,449q35,29 79,48t86,19q85,0 126-50.5T816,297l-1-173q0-18-0.5-36.5T811,50q16,1 33,1.5T875,53V0H655V42q28,0 39.5,14t14,39t2.5,58V297q-1,79-26,116t-76,37q-29,0-57-12.5T502,406q5-17 7.5-37.5T512,326q-1-50-1-100.5T511,124q0-18-1-36.5T507,50q16,1 32.5,1.5T570,53V0H348V42q30,0 41.5,14t14,39t2.5,58V298q1,79-22.5,116.5T309,451q-29,0-56-12.5T206,407q0-12 0.5-25t0.5-28V124q0-18-1-36.5T203,50q16,1 32,1.5T265,53V0H43Z" />
      <glyph unicode="n" glyph-name="gid92" horiz-adv-x="617" d="M43,0V42q30,0 42,14T99.5,95t2.5,58l1,208q0,16 0.5,34.5T107,432q-18-1-36.5-1.5T36,429v53q45,0 70.5,4.5t39,10.5T166,510h36q1-9 1.5-17t1-17t1.5-23q22,18 48,32t54.5,22.5T363,516q89,0 128.5-54T531,293V124q0-18-1-36.5T527,50q16,1 32.5,1.5T590,53V0H367V42q30,0 42,14t14.5,39t2.5,58V293q-1,79-25.5,119T322,451q-32,0-63-16t-52-39q0-10 0-21.5t0-23.5V124q0-18-1-36.5T203,50q16,1 32.5,1.5T266,53V0H43Z" />
      <glyph unicode="o" glyph-name="gid94" horiz-adv-x="579" d="M290-16q-71,0-128,32T71.5,105.5T38,238q0,81 33.5,143.5T162,480t127,36q71,0 128-32.5t90.5-90T541,261q0-79-33-142T418.5,20T290-16Zm7,50q48,1 75.5,30T412,138.5T424,233q0,43-7.5,84.5T393,393t-42,54.5T288,467q-47,0-76.5-29t-43-74.5T155,267q0-59 15-112t46.5-87T297,34Z" />
      <glyph unicode="p" glyph-name="gid102" horiz-adv-x="598" d="M34-255v42q30,0 42,14t14.5,39T93-102l1,463q0,16 1,34.5T98,432q-17-1-36-1.5T27,429v53q45,0 70.5,4.5t39,10.5T157,510h36q1-10 2-24t2-28q32,28 71,43t78,15q58,0 106.5-30.5t78-86.5T560,266q0-83-34-147T434.5,19.5T307-16q-32,0-59,7.5T197,12V-131q0-18-0.5-36.5T194-205q16,1 32.5,1.5T257-202v-53H34ZM300,36q48,0 79.5,28.5t47,77T442,251q0,51-14,97.5t-44.5,76T304,453q-31,0-59-15t-47-37q0-13 0.5-28t0.5-37.5t0-57t-0.5-86T198,68q20-15 46.5-24T300,36Z" />
      <glyph unicode="q" glyph-name="gid104" horiz-adv-x="575" d="M341-255v42q30,0 42,14t14.5,39t2.5,58l1,147Q373,14 336-1T255-16q-61,0-110,31.5T67.5,104T39,238q0,83 33,145.5T163,481t130,35q47,0 81-11t57-11q10,0 19.5,4T468,510h36l1-641q0-18-0.5-36.5T501-205q16,1 33,1.5t31,1.5v-53H341ZM297,47q30,0 58,16t45,42V358q0,39-11.5,63t-34,35T298,467q-47,0-78.5-27.5T172,365T156,259q1-56 16.5-104.5t47-78T297,47Z" />
      <glyph unicode="r" glyph-name="gid105" horiz-adv-x="449" d="M43,42q30,0 42,14T99.5,95t2.5,58V361q0,16 0.5,34.5T106,432q-17-1-36-1.5T35,429v53H69q42,0 64,9t32,19h36q2-14 3-39t2-56q19,28 44,50.5T304.5,502T366,516q31,0 53.5-16.5T442,446q0-10-5.5-23t-18-22.5T385,391q-21,1-36.5,16T334,448q-24,0-48-14.5T241.5,395T207,343V124q0-18-0.5-36.5T203,50q16,1 33,1.5T267,53V0H43V42Z" />
      <glyph unicode="s" glyph-name="gid106" horiz-adv-x="470" d="M256-16q-47,0-87,12.5T105,26l3-33H55L50,165H92q2-37 23-67t54.5-47T242,34q23,0 45,7.5t37,23T339,103q0,25-15.5,41.5t-42,29.5T221,200q-30,12-60.5,25T104,256T63,300.5T48,366q0,23 9,49.5t29,49t54,37T224,516q27,0 60.5-9T347,476l-1,35h53V335H356q-3,35-18.5,65T294,449t-68,19q-39,0-63.5-19.5T138,400t18.5-47T205,322t65-26q42-17 79-37t60-50t23-76q0-50-25.5-83.5T341,0T256-16Z" />
      <glyph unicode="t" glyph-name="gid108" horiz-adv-x="396" d="M234-16q-25,0-50.5,6.5T137,16.5T104,73T92,171l2,273H20v56q27,1 55,20t49,51t29,69h47V500H354V448l-154-2l-2-267q0-38 6.5-66.5t22-44T269,53q23,0 47.5,14T363,113l34-30q-24-35-48-55T303-1.5t-40-12T234-16Z" />
      <glyph unicode="u" glyph-name="gid109" horiz-adv-x="604" d="M253-16q-56,0-92.5,21T106,74.5T88,203V360q0,17 0.5,35.5T92,432q-17-1-36-1.5T22,429v53H46q50,0 75,9t35,19h38V205q0-79 22-118t74-38q34,0 65.5,20T407,116V353q0,22 1,41.5t4,37.5q-18-1-37-1.5T340,429v53h29q44,0 69,9t36,19h38l-1-368q0-16-1-43.5T507,50q17,1 35.5,2T577,53V0H418q-2,16-3.5,30T411,57Q380,28 339,6T253-16Z" />
      <glyph unicode="v" glyph-name="gid114" horiz-adv-x="516" d="M232-3L84,330q-15,34-22.5,56t-10,37.5T47,450L6,447v53H207V459q-27-1-35-15t-3.5-36.5T183,359l69-160q8-18 15.5-37T283,123h1q6,17 12.5,35.5T309,194l68,187q8,24 16.5,41T408,451l-64-4v53H513V459q-22-2-38-19t-29.5-46T417,329L287-3H232Z" />
      <glyph unicode="w" glyph-name="gid115" horiz-adv-x="804" d="M208-3L81,369q-8,22-13,36.5t-8,25T55,450L7,447v53H228V459q-40-1-45-28.5t9-69.5l42-134q7-24 14-48.5T262,130q8,25 16,52t18,58l83,260h64l94-286q7-22 14.5-45.5T566,123q7,22 14.5,44T594,210l57,169q8,23 14.5,40.5T681,451l-58-4v53H803V459q-24-1-40-9.5t-27.5-21t-18.5-28T705,370L571-3H509L423,250q-5,16-11,34.5T399.5,323T387,361q-5-21-12.5-44.5t-14.5-45T348,234L267-3H208Z" />
      <glyph unicode="x" glyph-name="gid116" horiz-adv-x="536" d="M29,0V41q28,8 46,26t43,50l96,120q-15,19-34,43t-36,47t-29,37q-20,26-33.5,48.5T62,449l-40-2v53H233V459q-40-1-42.5-19.5T219,380l54-71l74,89q14,16 24.5,29T393,451l-62-4v53H499V459q-25-8-43.5-20.5t-36-31T379,361l-73-89L436,113q12-15 23.5-29.5T482,50l41,3V0H316V41q26,1 33.5,13T337,90L247,198l-71-95q-12-16-22.5-28.5T130,49l67,4V0H29Z" />
      <glyph unicode="y" glyph-name="gid117" horiz-adv-x="536" d="M130-271q-33,0-56.5,17.5T50-203q0,21 13.5,38T99-148q24,1 34.5-15T144-196q0-3 0-6t-1-7q3-2 9-1q11,1 24,12t24,31q12,22 27,61t33,90L103,312q-27,56-37.5,87.5T52,449L4,447v53H225V459h-2q-41-4-44.5-31T197,354L307,112q19,51 38.5,111T386,346q7,19 14.5,40.5t16,39.5T433,451l-65-4v53H532V459q-35-12-54.5-44T440,334L315-18q-29-83-54-139.5t-55.5-85T130-271Z" />
      <glyph unicode="z" glyph-name="gid120" horiz-adv-x="512" d="M38,0V51L301,392q16,20 31.5,39T356,455l-170-3q-33,0-51.5-18.5t-27.5-49T93,316H51L64,500H460V458L198,109q-13-17-24.5-30T145,52l175-4q39,0 61,18.5t33.5,50T432,187h40L459,0H38Z" />
      <glyph unicode="{" glyph-name="gid187" horiz-adv-x="345" d="M307-271q-71,0-113.5,24T132-175T113-57q0,29 2.5,64t5,69t2.5,60q0,51-20,74.5T27,234H4v58H27q56,0 76,21.5T123,386q0,39-5,81.5T113,554q0,71 19,116.5T193.5,738T307,760h28V714q-48,2-75.5-11t-39-45.5T209,568q0-20 3-47t5.5-54.5T221,416q2-46-15.5-78t-48-50T91,264v-2q36-5 66-24t48-51.5T221,108q0-24-3-58.5t-6-67T209-71q0-57 11.5-92.5t39-51T335-229v-42H307Z" />
      <glyph unicode="|" glyph-name="gid213" horiz-adv-x="240" d="M76-271L73,760h96L165-271H76Z" />
      <glyph unicode="}" glyph-name="gid188" horiz-adv-x="345" d="M38-271H10v42q49-1 76,14.5t38.5,51T136-71q0,21-2.5,53.5t-5.5,67T124,108q-1,46 16.5,78.5t48,51.5T255,262v2q-36,6-66.5,24t-48,50T124,416q1,23 4,50.5t5.5,54.5t2.5,47q0,57-11.5,89.5T86,703T10,714v46H38q72,0 114.5-22T214,670.5T233,554q0-44-5-86.5T223,386q0-51 20.5-72.5T319,292h23V234H319q-55,0-75.5-23.5T223,136q0-26 2.5-60t5-69T233-57q0-70-19-118t-61.5-72T38-271Z" />
      <glyph unicode="~" glyph-name="gid237" horiz-adv-x="530" d="M368,221q-37,0-62.5,11.5t-46,26t-42,26T166,296q-41,0-68.5-14T43,248v81q32,26 59.5,39.5T170,382q39,0 63.5-10.5T277,347t37.5-26T360,307q36-3 69,10.5T487,354V273q-20-22-49.5-37T368,221Z" />
      <glyph unicode="&#xa0;" glyph-name="gid155" horiz-adv-x="263" />
      <glyph unicode="&#xa1;" glyph-name="gid164" horiz-adv-x="241" d="M144,276l39-413q2-28-14-53.5T120-216q-35,0-49.5,25.5T58-137L97,276h47ZM121,516q25,0 44-20t19-49q0-28-19.5-48.5T120,378q-27,0-45,20.5T57,447q0,29 19.5,49T121,516Z" />
      <glyph unicode="&#xa2;" glyph-name="gid216" horiz-adv-x="542" d="M252-135V-15Q192-7 144.5,25.5T69,112.5T41,240q0,64 26.5,122.5T142,462t111,53V623h73l-1-108q77-5 120.5-42.5T489,389q0-24-14-42t-39-18q-30-1-42,17.5T382,380q0,10 3.5,21T396,422q-8,21-26,31t-37,13t-31,3q-62-1-103-53T158,267q0-62 18.5-111t54-78.5T316,48q46-1 88,23t67,60l33-28q-38-57-88-84.5T319-15l-1-120H252Z" />
      <glyph unicode="&#xa3;" glyph-name="gid220" horiz-adv-x="556" d="M126,365q-6,27-11,57t-5,68q0,70 26,120.5t69.5,78T304,716q60,0 95-20t50-47.5T464,597q0-21-12-37t-36-17q-18,0-28.5,8T372,570t-5,20q0,8 2.5,19T381,630q-5,15-22,26t-46,11q-37,0-61-20t-35.5-51.5T205,529q0-47 7.5-87T226,365H380V307l-143-1q6-39 4-69t-14.5-57T185,123q16,4 31.5,5.5T246,130q41,0 74.5-14t61-28T430,74q18,0 31.5,15T477,135h43q-3-65-29.5-108T413-16q-26,0-51,11T313.5,21T265,48.5T213,64q-10,5-22.5,9T167,77q-7-38-28.5-65.5T92-16Q70-16 59-2.5T48,27q0,28 25,53t62,36q10,16 16.5,38.5T158,201q0,29-4.5,54.5T142,306l-79-1v60h63Z" />
      <glyph unicode="&#xa4;" glyph-name="gid217" horiz-adv-x="545" d="M113,36L62,76l58,67Q87,192 87,254q0,31 9.5,60.5T123,370L62,439l51,42l53-67q21,17 48,26.5t59,9.5q33,0 60-9.5T381,414l53,66l51-41l-62-69q18-26 27-55.5t9-60.5q0-63-33-111l59-67L434,36L384,99q-22-16-50-25t-61-9t-61,9T163,98L113,36Zm160,81q27,0 44,15t26.5,39T357,221.5t4,48.5q0,18-4.5,40T342,353t-27,35t-42,14t-42-14t-27-35t-14.5-43T185,270q0-22 4-48.5T202.5,171T229,132t44-15Z" />
      <glyph unicode="&#xa5;" glyph-name="gid221" horiz-adv-x="711" d="M243,0V44q28,1 42.5,9.5t20.5,32t6,69.5l-122-1v57l122-1v59l-122-1v57h83L135,540q-21,35-33.5,62T87,647q-16-1-29.5-1T29,645v55H299V656q-40,1-58.5-11T224,610.5T244,558l81-130q9-13 17.5-26.5t18-28.5T383,339q8,16 12.5,25.5t8,15.5t6.5,11.5t7.5,14T429,428l72,139q5,10 13.5,25t18,30.5T551,648q-18-1-39.5-1.5T473,645v55H682V656q-44-4-73-32.5T547,534L435,323H538V270l-120-1V210l120-1V156l-120-1q0-30 0-48.5T417.5,75T415,51q20,2 42.5,2.5T497,55V0H243Z" />
      <glyph unicode="&#xa6;" glyph-name="gid214" horiz-adv-x="245" d="M81,382L78,760h88l-4-378H81Zm0-653L78,105h88l-4-376H81Z" />
      <glyph unicode="&#xa7;" glyph-name="gid206" horiz-adv-x="538" d="M263-228q-57,0-97.5,19.5t-61.5,50T83-98q0,22 13,40t35,18q18,1 29-7t16-19.5T181-89q0-7-3-17t-8-18q4-22 30.5-38T260-178q41,0 65.5,15T361-125.5T372-81q0,31-17,55T310.5,18.5T250.5,58T187,96q-37,24-71,52.5T61,214T40,302q0,41 22.5,84T125,464q-21,24-30.5,52.5T83,578q-1,27 9,58t32.5,59.5T184,742t91,18t94.5-19T433,692.5T456,632q0-22-12.5-37.5T408,577q-18,0-29,8t-15.5,19.5T359,624t2.5,18.5T370,660q-9,22-33.5,36.5T279,711q-41,0-65.5-16.5T178,655t-11-44q0-32 17.5-57.5t45.5-46T291.5,468T357,428q38-23 70-51.5T479,311t20-86q0-41-23-84.5T415,62q17-21 28.5-47.5T455-48q0-25-10-56t-32-59.5T354-210t-91-18ZM383,96q14,20 21,44.5t7,48.5q0,38-17.5,66.5t-46,51t-62.5,42T217.5,388T157,430q-14-20-20.5-44.5T130,338q0-38 17.5-67t46-51.5t62.5-42t67.5-39T383,96Z" />
      <glyph unicode="&#xa8;" glyph-name="gid272" horiz-adv-x="400" d="M285,607q-23,0-39.5,19T229,672t17,46t39,19q24,0 39.5-19T340,672t-16.5-46T285,607Zm-170,0q-22,0-38.5,19T60,672t17,46t39,19q24,0 39.5-19T171,672t-16.5-46T115,607Z" />
      <glyph unicode="&#xa9;" glyph-name="gid207" horiz-adv-x="890" d="M445-57q-90,0-163.5,30T155,57T73.5,184.5T45,345q0,84 30,157.5T159,632t127.5,88T447,752q88,0 161.5-32T735,632t82-129.5T846,345q0-83-30.5-156T730,61T602-25.5T445-57Zm3,52q76,0 136.5,28T689,100t67,112t23,133T755.5,479t-68,114t-106,78.5T445,700q-74,0-135.5-28.5T204.5,593T137,479T113,345t23-133t66.5-112T308,23T448-5Zm3,104q-69,0-123,32.5t-86,88T210,343q0,44 15.5,89.5t46,82.5t76,59.5T454,596q34,0 66-10t58-29l-3,34h58V421H584q-7,63-42.5,89.5T458,537q-37,0-70-21.5t-54-62T313,355q0-52 20.5-94T392,195t88-25q34,0 73.5,19.5T622,244l36-38q-31-42-68-65.5T516.5,108T451,99Z" />
      <glyph unicode="&#xaa;" glyph-name="gid123" horiz-adv-x="401" d="M146,376q-48,0-73,21T48,452q0,30 17,51t45.5,35t62,21t65.5,8v37q0,18-3,34t-13.5,26.5T186,676q-15,0-31.5-8T131,646q5-5 6.5-12t1.5-14q0-11-8.5-25T101,582q-18,0-28,12T63,622q0,24 17.5,45.5t47.5,35T196,716q56,0 86.5-29.5T312,593q0-27-0.5-56T311,481q0-26 6-39t19-13q4,0 8,2t9,6l14-22q-10-15-30-26.5T298,377q-25,0-39,13.5T241,425q-17-23-42-36t-53-13Zm16,53q19-2 38.5,6.5T237,461q0,12 0.5,30.5T238,530q-27,0-52.5-7.5T144,500t-15-38q2-16 12.5-24t20.5-9Z" />
      <glyph unicode="&#xab;" glyph-name="gid197" horiz-adv-x="518" d="M300-10L28,269v11L297,550l37-36L142,278v-2L336,27L300-10ZM432,71L243,267v10L430,468l37-32L355,270v-2L469,103L432,71Z" />
      <glyph unicode="&#xac;" glyph-name="gid238" horiz-adv-x="530" d="M419,154l-3,124L36,276v74l447-2V154H419Z" />
      <glyph unicode="&#xae;" glyph-name="gid208" horiz-adv-x="890" d="M445-57q-90,0-163.5,30T155,56.5T73.5,184T45,345q0,84 29.5,158T158,633t127.5,87.5T447,752q89,0 162-31.5t126.5-88t82-130T846,345T815.5,188.5T730,61T602-25.5T445-57Zm3,53q76,0 137,28t104.5,76.5T756,212t23,133q0,71-23.5,135t-68,113.5T582,671.5T445,700q-75,0-136-28.5t-104.5-78T137.5,480T114,345q0-70 23-133t66-111.5T308,24T448-4ZM254,130v37q33,2 40.5,19t7.5,54V499q0,16 1,29.5t2,22.5l-51-4v45q28,1 60.5,2t66,1.5T441,595q94-1 140.5-38T628,459q-1-24-12-50.5T579.5,360T510,326q9-5 19-15.5T551,283q35-52 54.5-77.5t32.5-33t28-7.5V127H573q-14,6-30.5,25.5T506,202q-19,30-32.5,51T451,288.5T434,314q-10,0-25.5,0T384,314V226q0-17-0.5-31T383,172l50,2l2-44H254ZM427,361q27,0 53,10.5t43.5,32T541,459q0,35-17.5,55t-43,28T429,548q-31-3-38-21t-7-53V362q12-1 22-1.5t21,0.5Z" />
      <glyph unicode="&#xaf;" glyph-name="gid278" horiz-adv-x="361" d="M45,636v72H316V640L45,636Z" />
      <glyph unicode="&#xb0;" glyph-name="gid210" horiz-adv-x="397" d="M197,401q-47,0-82.5,21T60,479T41,559t21.5,79.5t58,56.5T200,716q48,0 83-21t54.5-56.5T357,559t-22-80t-58-57t-80-21Zm2,58q39,0 63.5,30T287,559t-24.5,70.5T198,660q-38,0-62.5-30.5T111,559t24.5-70T199,459Z" />
      <glyph unicode="&#xb1;" glyph-name="gid236" horiz-adv-x="530" d="M42,393H488V334H42v59ZM295,583V137H235V583h60ZM42,53H488V-6H42V53Z" />
      <glyph unicode="&#xb2;" glyph-name="gid151" horiz-adv-x="382" d="M56,305q0,43 16,75t41,59t54,51q41,35 52.5,65.5T231,606q0,31-15.5,49T173,673q-20,0-34.5-10T120,641q6-5 8.5-12.5T131,615q0-10-8.5-23T94,580q-16,0-25,11.5T60,619q0,20 14.5,42.5t43,38.5T188,716q32,0 61-11t47-34.5T314,609q0-24-13-48t-41.5-51.5T185,447q-27-21-42.5-39.5T121,370l97-2q22,0 38.5,1t26,9t9.5,29h32l-4-102H56Z" />
      <glyph unicode="&#xb3;" glyph-name="gid152" horiz-adv-x="368" d="M171,301q-59,1-91,30T48,393q0,17 10,30t27,13q21,1 29-12t8-26q0-5-2.5-13T112,372q5-16 22.5-23.5T169,341q36,0 54.5,24T242,420q0,18-7,37t-24.5,32T160,502q-5,0-13-0.5T131,501v39q5,0 9.5,0t9.5,0q34,0 50.5,12.5T222,582t5,28q0,26-13.5,46.5T167,676q-21-1-33.5-10T117,645q6-4 8.5-11.5T128,620q0-9-8-22.5T92,585q-16,1-25.5,12T57,624q0,19 13.5,40.5T112,701t69,15q53,0 87-26.5T302,616q0-26-21-52t-60-36q50-7 75-36t26-69q1-52-38.5-87.5T171,301Z" />
      <glyph unicode="&#xb4;" glyph-name="gid274" horiz-adv-x="262" d="M79,575L45,604l83,137q14,20 28.5,25.5t27,3T203,761q8-6 12-19t-0.5-28.5T194,681L79,575Z" />
      <glyph unicode="&#xb5;" glyph-name="gid240" horiz-adv-x="613" d="M149-264q-32,0-45,25.5T91-171V500h98V219q0-49 9-87t31-60t59-22q30,0 58,16.5T393,109V500h98l-1-359q0-25 4-42.5t12.5-27T528,62q8,0 18,4t22,14l19-24q-14-20-43-41T479-6q-34,0-53,16.5T400,52Q372,22 336,4.5T261-13q-35,0-63.5,21.5T148,71l-3-3Q157-6 167-51t17-71.5T195.5-166t4.5-36q0-22-12-42t-39-20Z" />
      <glyph unicode="&#xb6;" glyph-name="gid205" horiz-adv-x="525" d="M170-255l2,661q-33,4-64,19T56.5,471T36,553q0,49 21,81.5t54.5,49T181,700H430l-2-955H344l2,905l-89-3l-3-902H170Z" />
      <glyph unicode="&#xb7;" glyph-name="gid167" horiz-adv-x="242" d="M122,264q-27,0-45.5,20T58,333q0,28 19.5,48.5T122,402q27,0 45-20.5T185,333q0-29-18.5-49T122,264Z" />
      <glyph unicode="&#xb8;" glyph-name="gid279" horiz-adv-x="303" d="M52-247l-7,39q21,4 42,10.5t39,15T154.5-162T165-135q0,19-13.5,24.5t-30.5,2T91-122L56-106L86,9h62L121-72q13,7 32.5,11.5T189-56q31,0 50-17.5T258-123t-21.5-54t-55-36t-68-22T52-247Z" />
      <glyph unicode="&#xb9;" glyph-name="gid150" horiz-adv-x="281" d="M72,301v31q27,1 36.5,17.5T118,398V636L54,599L37,630l123,86h28l1-336q0-13-0.5-24T187,337q11,1 24,1t24,0V301H72Z" />
      <glyph unicode="&#xba;" glyph-name="gid124" horiz-adv-x="405" d="M202,375q-46,0-82,21T63,454T42,538q0,51 21,91t57.5,63.5T205,716q47,0 82.5-21t56-58.5T364,550q1-51-19.5-91t-57-62T202,375Zm7,42q35,1 54.5,34T283,536q0,38-8.5,70t-26,51.5T202,676q-36-2-56-35t-20-85q0-39 9-71t27.5-50T209,417Z" />
      <glyph unicode="&#xbb;" glyph-name="gid198" horiz-adv-x="518" d="M218-10L182,27L376,276v2L184,514l37,36L490,280V269L218-10ZM86,71L49,103L163,268v2L51,436l36,32L274,277V267L86,71Z" />
      <glyph unicode="&#xbc;" glyph-name="gid148" horiz-adv-x="764" d="M72,301v31q27,1 36.5,17.5T118,398V636L54,599L37,630l123,86h28l1-336q0-13-0.5-24T187,337q11,1 24,1t24,0V301H72ZM173-16L126,17L585,716l52-38L173-16ZM548-1V31q28,1 37.5,15.5T595,91v11l-163,1v39L635,411h29l1-266l57-1V102H665q0-18 0-35t-1-33q11,1 22,1t20,1V-1H548Zm47,147l2,154L485,148l110-2Z" />
      <glyph unicode="&#xbd;" glyph-name="gid147" horiz-adv-x="788" d="M72,301v31q27,1 36.5,17.5T118,398V636L54,599L37,630l123,86h28l1-336q0-13-0.5-24T187,337q11,1 24,1t24,0V301H72ZM173-16L126,17L585,716l52-38L173-16ZM479,0q0,43 16,75t41,59t54,51q41,35 52.5,65.5T654,301q0,31-15.5,49T596,368q-20,0-34.5-10T543,336q6-5 8.5-12.5T554,310q0-10-8.5-23T517,275q-16,0-25,11.5T483,314q0,20 14.5,42.5t43,38.5T611,411q32,0 61-11t47-34.5T737,304q0-24-13-48t-41.5-51.5T608,142q-27-21-42.5-39.5T544,65l97-2q22,0 38.5,1t26,9t9.5,29h32L743,0H479Z" />
      <glyph unicode="&#xbe;" glyph-name="gid149" horiz-adv-x="803" d="M171,301q-59,1-91,30T48,393q0,17 10,30t27,13q21,1 29-12t8-26q0-5-2.5-13T112,372q5-16 22.5-23.5T169,341q36,0 54.5,24T242,420q0,18-7,37t-24.5,32T160,502q-5,0-13-0.5T131,501v39q5,0 9.5,0t9.5,0q34,0 50.5,12.5T222,582t5,28q0,26-13.5,46.5T167,676q-21-1-33.5-10T117,645q6-4 8.5-11.5T128,620q0-9-8-22.5T92,585q-16,1-25.5,12T57,624q0,19 13.5,40.5T112,701t69,15q53,0 87-26.5T302,616q0-26-21-52t-60-36q50-7 75-36t26-69q1-52-38.5-87.5T171,301ZM212-16L165,17L624,716l52-38L212-16ZM587-1V31q28,1 37.5,15.5T634,91v11l-163,1v39L674,411h29l1-266l57-1V102H704q0-18 0-35t-1-33q11,1 22,1t20,1V-1H587Zm47,147l2,154L524,148l110-2Z" />
      <glyph unicode="&#xbf;" glyph-name="gid166" horiz-adv-x="476" d="M250,314q30,0 56-15t26-52q0-20-11-38t-30.5-37.5T244,127q-37-33-66-71.5T147-42q0-34 9.5-62.5t34-45.5T257-167q25,0 46,9t35.5,22.5T356-109q-7,9-10.5,20.5T342-66q0,10 5.5,22T365-23t30,8q26-1 38-17.5T445-74q0-31-25-64t-71-55.5T241-216q-78,0-123.5,25T53-127T35-47Q37-6 60,28t55,62.5t64,52t53.5,45T254,229q0,12-9.5,22T213,261q-7,0-16.5-1.5T178,255l-13,40q19,10 42.5,14.5T250,314Zm-8,202q23,0 41.5-18T302,451q0-27-18.5-46.5T242,385q-25,0-42.5,19.5T182,451t18,46t42,19Z" />
      <glyph unicode="&#xc0;" glyph-name="gid6" horiz-adv-x="640" d="M-3,0V45q30,0 46,16t27,43.5T94,166L296,719h40L555,158q8-19 18-51.5T582,51q17,2 33.5,2.5T647,55V0H404V44q35,1 46.5,15.5t9,35.5T449,137l-30,81l-245-6l-29-87q-6-20-13-38T118,52q18,2 38.5,2.5T193,56V0H-3ZM192,266H402L339,435q-12,33-23,65.5T296,563h-1q-8-25-18-55t-23-65L192,266ZM347,757L203,841q-19,13-27,26.5T169,894t7,22q6,7 17,12t27,2.5T253,912L374,792l-27-35Z" />
      <glyph unicode="&#xc1;" glyph-name="gid2" horiz-adv-x="640" d="M-3,0V45q30,0 46,16t27,43.5T94,166L296,719h40L555,158q8-19 18-51.5T582,51q17,2 33.5,2.5T647,55V0H404V44q35,1 46.5,15.5t9,35.5T449,137l-30,81l-245-6l-29-87q-6-20-13-38T118,52q18,2 38.5,2.5T193,56V0H-3ZM192,266H402L339,435q-12,33-23,65.5T296,563h-1q-8-25-18-55t-23-65L192,266Zm87,491l-27,35L373,912q18,16 34,18.5t27.5-2.5T450,916q6-9 7-22t-6-26.5T423,841L279,757Z" />
      <glyph unicode="&#xc2;" glyph-name="gid4" horiz-adv-x="640" d="M-3,0V45q30,0 46,16t27,43.5T94,166L296,719h40L555,158q8-19 18-51.5T582,51q17,2 33.5,2.5T647,55V0H404V44q35,1 46.5,15.5t9,35.5T449,137l-30,81l-245-6l-29-87q-6-20-13-38T118,52q18,2 38.5,2.5T193,56V0H-3ZM192,266H402L339,435q-12,33-23,65.5T296,563h-1q-8-25-18-55t-23-65L192,266ZM449,765L316,850L184,765l-26,35L317,944h7L475,800l-26-35Z" />
      <glyph unicode="&#xc3;" glyph-name="gid8" horiz-adv-x="640" d="M-3,0V45q30,0 46,16t27,43.5T94,166L296,719h40L555,158q8-19 18-51.5T582,51q17,2 33.5,2.5T647,55V0H404V44q35,1 46.5,15.5t9,35.5T449,137l-30,81l-245-6l-29-87q-6-20-13-38T118,52q18,2 38.5,2.5T193,56V0H-3ZM192,266H402L339,435q-12,33-23,65.5T296,563h-1q-8-25-18-55t-23-65L192,266ZM515,900q-16-44-36.5-69.5t-43-36.5T391,783q-27,0-48,9.5T304.5,815T271,837.5T236,847q-21,0-39.5-14T158,790l-41,25q19,48 53.5,76T238,919q28,1 48.5-8.5t37-22T357,866t36-10q25,0 46,19.5T474,921l41-21Z" />
      <glyph unicode="&#xc4;" glyph-name="gid5" horiz-adv-x="640" d="M-3,0V45q30,0 46,16t27,43.5T94,166L296,719h40L555,158q8-19 18-51.5T582,51q17,2 33.5,2.5T647,55V0H404V44q35,1 46.5,15.5t9,35.5T449,137l-30,81l-245-6l-29-87q-6-20-13-38T118,52q18,2 38.5,2.5T193,56V0H-3ZM192,266H402L339,435q-12,33-23,65.5T296,563h-1q-8-25-18-55t-23-65L192,266Zm35,517q-24,0-41.5,19.5T168,850q0,29 18,48.5T228,918t41-19.5T286,850q0-28-18-47.5T227,783Zm178,0q-24,0-41,19.5T347,850q0,29 17.5,48.5T406,918q25,0 41-19.5T463,850q0-28-17.5-47.5T405,783Z" />
      <glyph unicode="&#xc5;" glyph-name="gid7" horiz-adv-x="640" d="M-3,0V45q30,0 46,16t27,43.5T94,166L296,719h40L555,158q8-19 18-51.5T582,51q17,2 33.5,2.5T647,55V0H404V44q35,1 46.5,15.5t9,35.5T449,137l-30,81l-245-6l-29-87q-6-20-13-38T118,52q18,2 38.5,2.5T193,56V0H-3ZM192,266H402L339,435q-12,33-23,65.5T296,563h-1q-8-25-18-55t-23-65L192,266ZM317,727q-30,0-57,11.5t-45,36T195,837q-1,37 16.5,64.5T257,944t58,15q28,0 55.5-11.5t46-35.5T436,850t-16.5-66T374,741.5T317,727Zm4,41q19,1 33,18t14,48q0,44-16,65.5T312,919q-22-1-35-20t-13-51q0-38 15.5-59.5T321,768Z" />
      <glyph unicode="&#xc6;" glyph-name="gid9" horiz-adv-x="944" d="M-16,0V44q26,0 46,15T67,96.5T98,140L447,649l-85-4v55H862l6-181H824q0,57-18.5,87t-48,40T693,655l-69-2q-32,0-47.5-10.5t-20.5-34T551,545V388H715l-6,86h55V253H720q0,43-12,62t-37,23.5T608,341l-57-2V133q0-27-0.5-47.5T548,52l176-2q38,0 68,14.5T839,113t17,90h45L895,0H375V46q26,2 41,9t22,26t7,57v78l-228-5l-44-65q-17-25-33.5-49T106,52l77,3V0H-16ZM252,265H445V555L252,265Z" />
      <glyph unicode="&#xc7;" glyph-name="gid12" horiz-adv-x="695" d="M594,477q-11,90-62,138.5T399,665q-52,0-96-23t-76-64.5t-49.5-98T160,356q0-91 32-161.5T280.5,85T409,46q64,0 126.5,30.5T639,163l33-28q-45-62-96-95T474.5-4.5T383-16q-75,0-138,27T136.5,86.5t-70,113T42,339q0,70 22,137t65,121.5T237.5,684T390,716q51,0 99.5-14T583,659l-5,50h62V477H594ZM321-265l-7,44q21,4 42.5,11t39,17T424-170.5T435-143q0,21-12.5,26.5t-30,2T362-127l-38,16L354,9h65L392-74q13,8 33.5,12T458-58q36,0 56.5-20T535-130q0-31-23-55t-57.5-40.5t-70.5-26T321-265Z" />
      <glyph unicode="&#xc8;" glyph-name="gid19" horiz-adv-x="623" d="M399,253q0,43-12.5,62T349,338.5T287,341l-58-2V131q0-27-0.5-47.5T226,50l172,2q39,1 70,14.5T517,113t18,90h44L573,0H53V44q33,2 47.5,14T119,94t4,61V571q0,22 1,42.5t2,35.5q-17-1-37-2t-36-2v55H541l5-181H502q0,57-18.5,87t-48,40T372,655l-70-2q-31,0-47-10.5t-21-34T229,545V388H394l-6,86h55V253H399ZM357,757L213,841q-19,13-27,26.5T179,894t7,22q6,7 17,12t27,2.5T263,912L384,792l-27-35Z" />
      <glyph unicode="&#xc9;" glyph-name="gid16" horiz-adv-x="623" d="M399,253q0,43-12.5,62T349,338.5T287,341l-58-2V131q0-27-0.5-47.5T226,50l172,2q39,1 70,14.5T517,113t18,90h44L573,0H53V44q33,2 47.5,14T119,94t4,61V571q0,22 1,42.5t2,35.5q-17-1-37-2t-36-2v55H541l5-181H502q0,57-18.5,87t-48,40T372,655l-70-2q-31,0-47-10.5t-21-34T229,545V388H394l-6,86h55V253H399ZM289,757l-26,35L384,912q18,16 33.5,18.5t27-2.5T461,916q6-9 7-22t-6.5-26.5T433,841L289,757Z" />
      <glyph unicode="&#xca;" glyph-name="gid17" horiz-adv-x="623" d="M399,253q0,43-12.5,62T349,338.5T287,341l-58-2V131q0-27-0.5-47.5T226,50l172,2q39,1 70,14.5T517,113t18,90h44L573,0H53V44q33,2 47.5,14T119,94t4,61V571q0,22 1,42.5t2,35.5q-17-1-37-2t-36-2v55H541l5-181H502q0,57-18.5,87t-48,40T372,655l-70-2q-31,0-47-10.5t-21-34T229,545V388H394l-6,86h55V253H399Zm61,512L327,850L195,765l-26,35L328,944h7L486,800l-26-35Z" />
      <glyph unicode="&#xcb;" glyph-name="gid18" horiz-adv-x="623" d="M399,253q0,43-12.5,62T349,338.5T287,341l-58-2V131q0-27-0.5-47.5T226,50l172,2q39,1 70,14.5T517,113t18,90h44L573,0H53V44q33,2 47.5,14T119,94t4,61V571q0,22 1,42.5t2,35.5q-17-1-37-2t-36-2v55H541l5-181H502q0,57-18.5,87t-48,40T372,655l-70-2q-31,0-47-10.5t-21-34T229,545V388H394l-6,86h55V253H399ZM237,783q-24,0-41.5,19.5T178,850q0,29 18,48.5T238,918t41-19.5T296,850q0-28-18-47.5T237,783Zm178,0q-24,0-41,19.5T357,850q0,29 17.5,48.5T416,918q25,0 41-19.5T473,850q0-28-17.5-47.5T415,783Z" />
      <glyph unicode="&#xcc;" glyph-name="gid27" horiz-adv-x="352" d="M299,656q-32-1-47-13.5t-19-36T229,545V134q0-27-0.5-48.5T226,51q17,2 37.5,2.5T299,55V0H53V44q33,2 47.5,14T119,94t4,61V571q0,22 1,42.5t2,35.5q-17-1-37-2t-36-2v55H299V656ZM209,757L65,841q-19,13-27,26.5T31,894t7,22q6,7 17,12t27,2.5T115,912L236,792l-27-35Z" />
      <glyph unicode="&#xcd;" glyph-name="gid24" horiz-adv-x="352" d="M299,656q-32-1-47-13.5t-19-36T229,545V134q0-27-0.5-48.5T226,51q17,2 37.5,2.5T299,55V0H53V44q33,2 47.5,14T119,94t4,61V571q0,22 1,42.5t2,35.5q-17-1-37-2t-36-2v55H299V656ZM141,757l-26,35L236,912q18,16 33.5,18.5t27-2.5T313,916q6-9 7-22t-6.5-26.5T285,841L141,757Z" />
      <glyph unicode="&#xce;" glyph-name="gid25" horiz-adv-x="352" d="M299,656q-32-1-47-13.5t-19-36T229,545V134q0-27-0.5-48.5T226,51q17,2 37.5,2.5T299,55V0H53V44q33,2 47.5,14T119,94t4,61V571q0,22 1,42.5t2,35.5q-17-1-37-2t-36-2v55H299V656Zm13,109L179,850L47,765L21,800L180,944h7L338,800l-26-35Z" />
      <glyph unicode="&#xcf;" glyph-name="gid26" horiz-adv-x="352" d="M299,656q-32-1-47-13.5t-19-36T229,545V134q0-27-0.5-48.5T226,51q17,2 37.5,2.5T299,55V0H53V44q33,2 47.5,14T119,94t4,61V571q0,22 1,42.5t2,35.5q-17-1-37-2t-36-2v55H299V656ZM89,783q-24,0-41.5,19.5T30,850q0,29 18,48.5T90,918t41-19.5T148,850q0-28-18-47.5T89,783Zm178,0q-24,0-41,19.5T209,850q0,29 17.5,48.5T268,918q25,0 41-19.5T325,850q0-28-17.5-47.5T267,783Z" />
      <glyph unicode="&#xd0;" glyph-name="gid14" horiz-adv-x="749" d="M23,327v55H402V329L23,327ZM53,44q33,2 47.5,14T119,94t4,61V571q0,22 1,42.5t2,35.5q-17-1-37-2t-36-2v55l255,1q93,0 167-24t126-69.5T680,497t27-145q0-67-23-130T613.5,109.5T494,30T324,0H53V44Zm176,89q0-27-0.5-48T226,51q21,0 42-0.5T305.5,50T329,50q62,0 110,23t81.5,64t51,95T589,347q0,98-32,166T460.5,617T300,654q-33,0-48-11.5T233,607t-4-61V133Z" />
      <glyph unicode="&#xd1;" glyph-name="gid33" horiz-adv-x="766" d="M595-14L223,480q-11,13-21,27t-21,29h-1l3-389q0-25-0.5-50T180,51q17,2 37.5,2.5T253,55V0H55V44q28,0 42.5,11t20,29t5.5,42V574q0,20 0,40t1,35q-16-1-35.5-2T54,645v55H186L538,237q17-22 30.5-41T595,160h1l1,411q0,22 1,42.5t2,35.5q-18-1-38-2t-35-2v55H725V656q-32-1-46.5-13.5t-18-36T657,545L656-14H595Zm-4,914q-16-44-36.5-69.5t-43-36.5T467,783q-27,0-48,9.5T380.5,815T347,837.5T312,847q-21,0-39.5-14T234,790l-41,25q19,48 53.5,76T314,919q28,1 48.5-8.5t37-22T433,866t36-10q25,0 46,19.5T550,921l41-21Z" />
      <glyph unicode="&#xd2;" glyph-name="gid38" horiz-adv-x="786" d="M396-16q-95,0-162.5,32T124,101.5T62,220T42,350q0,63 21.5,127.5t65,118.5t109,87T391,716q92,0 158.5-33T659,595.5T723.5,477T745,350q0-62-21.5-126.5t-65-119T550,17T396-16Zm5,52q58,0 100.5,26t70,69.5t40.5,96T625,332q0,64-15,123.5t-45.5,107t-75.5,75T385,665q-58,0-101-27t-70-70.5t-40.5-96T160,366q0-52 14-110t43-108t74.5-81T401,36Zm18,721L275,841q-19,13-27,26.5T241,894t7,22q6,7 17,12t27,2.5T325,912L446,792l-27-35Z" />
      <glyph unicode="&#xd3;" glyph-name="gid35" horiz-adv-x="786" d="M396-16q-95,0-162.5,32T124,101.5T62,220T42,350q0,63 21.5,127.5t65,118.5t109,87T391,716q92,0 158.5-33T659,595.5T723.5,477T745,350q0-62-21.5-126.5t-65-119T550,17T396-16Zm5,52q58,0 100.5,26t70,69.5t40.5,96T625,332q0,64-15,123.5t-45.5,107t-75.5,75T385,665q-58,0-101-27t-70-70.5t-40.5-96T160,366q0-52 14-110t43-108t74.5-81T401,36ZM351,757l-27,35L445,912q18,16 33.5,18.5t27-2.5T522,916q6-9 7-22t-6.5-26.5T495,841L351,757Z" />
      <glyph unicode="&#xd4;" glyph-name="gid36" horiz-adv-x="786" d="M396-16q-95,0-162.5,32T124,101.5T62,220T42,350q0,63 21.5,127.5t65,118.5t109,87T391,716q92,0 158.5-33T659,595.5T723.5,477T745,350q0-62-21.5-126.5t-65-119T550,17T396-16Zm5,52q58,0 100.5,26t70,69.5t40.5,96T625,332q0,64-15,123.5t-45.5,107t-75.5,75T385,665q-58,0-101-27t-70-70.5t-40.5-96T160,366q0-52 14-110t43-108t74.5-81T401,36ZM521,765L388,850L256,765l-26,35L389,944h7L547,800l-26-35Z" />
      <glyph unicode="&#xd5;" glyph-name="gid40" horiz-adv-x="786" d="M396-16q-95,0-162.5,32T124,101.5T62,220T42,350q0,63 21.5,127.5t65,118.5t109,87T391,716q92,0 158.5-33T659,595.5T723.5,477T745,350q0-62-21.5-126.5t-65-119T550,17T396-16Zm5,52q58,0 100.5,26t70,69.5t40.5,96T625,332q0,64-15,123.5t-45.5,107t-75.5,75T385,665q-58,0-101-27t-70-70.5t-40.5-96T160,366q0-52 14-110t43-108t74.5-81T401,36ZM586,900q-16-44-36.5-69.5t-43-36.5T462,783q-27,0-48,9.5T375.5,815T342,837.5T307,847q-21,0-39.5-14T229,790l-41,25q19,48 53.5,76T309,919q28,1 48.5-8.5t37-22T428,866t36-10q25,0 46,19.5T545,921l41-21Z" />
      <glyph unicode="&#xd6;" glyph-name="gid37" horiz-adv-x="786" d="M396-16q-95,0-162.5,32T124,101.5T62,220T42,350q0,63 21.5,127.5t65,118.5t109,87T391,716q92,0 158.5-33T659,595.5T723.5,477T745,350q0-62-21.5-126.5t-65-119T550,17T396-16Zm5,52q58,0 100.5,26t70,69.5t40.5,96T625,332q0,64-15,123.5t-45.5,107t-75.5,75T385,665q-58,0-101-27t-70-70.5t-40.5-96T160,366q0-52 14-110t43-108t74.5-81T401,36ZM299,783q-24,0-41.5,19.5T240,850q0,29 18,48.5T300,918t41-19.5T358,850q0-28-18-47.5T299,783Zm178,0q-24,0-41,19.5T419,850q0,29 17.5,48.5T478,918q25,0 41-19.5T535,850q0-28-17.5-47.5T477,783Z" />
      <glyph unicode="&#xd7;" glyph-name="gid231" horiz-adv-x="530" d="M131,541L446,226l-42-42L89,499l42,42Zm312-43L127,182L87,222L403,538l40-40Z" />
      <glyph unicode="&#xd8;" glyph-name="gid39" horiz-adv-x="786" d="M606,765l62-39L190-86L133-50L606,765ZM395-16q-95,0-162.5,32T123,101.5T61.5,220T42,350q0,63 21,127.5T127.5,596t109,87T391,716q91,0 158-33t110-87.5T723,477t21-127q0-62-21-126.5t-64.5-119T549.5,17T395-16Zm5,52q59,0 101,26t69.5,69.5t41,96T625,332q0,64-15.5,123.5t-46,107t-75.5,75T384,665q-58,0-100.5-27t-70-70.5t-41-96T159,366q0-52 14-110t43-108t74.5-81T400,36Z" />
      <glyph unicode="&#xd9;" glyph-name="gid52" horiz-adv-x="755" d="M274,656q-29,0-44-11t-20-29.5T205,574V315q0-59 9.5-107.5t31-84t59-55.5T396,47q67,0 110,30t64.5,86T593,296l2,275q0,22 1,42.5t2,35.5q-17-1-37-2t-36-2v55H727V656q-33-1-47.5-13.5t-18.5-36T656,545l-1-238q0-72-16.5-131.5T588.5,73t-85-66T382-16Q301-16 246,6T158.5,71.5T112,178.5T98,325V541q0,27 1.5,59t2.5,49q-17-1-37-1.5T29,646v54H274V656ZM418,757L274,841q-19,13-27,26.5T240,894t7,22q6,7 17,12t27,2.5T324,912L445,792l-27-35Z" />
      <glyph unicode="&#xda;" glyph-name="gid49" horiz-adv-x="755" d="M274,656q-29,0-44-11t-20-29.5T205,574V315q0-59 9.5-107.5t31-84t59-55.5T396,47q67,0 110,30t64.5,86T593,296l2,275q0,22 1,42.5t2,35.5q-17-1-37-2t-36-2v55H727V656q-33-1-47.5-13.5t-18.5-36T656,545l-1-238q0-72-16.5-131.5T588.5,73t-85-66T382-16Q301-16 246,6T158.5,71.5T112,178.5T98,325V541q0,27 1.5,59t2.5,49q-17-1-37-1.5T29,646v54H274V656Zm76,101l-26,35L445,912q18,16 33.5,18.5t27-2.5T522,916q6-9 7-22t-6.5-26.5T494,841L350,757Z" />
      <glyph unicode="&#xdb;" glyph-name="gid50" horiz-adv-x="755" d="M274,656q-29,0-44-11t-20-29.5T205,574V315q0-59 9.5-107.5t31-84t59-55.5T396,47q67,0 110,30t64.5,86T593,296l2,275q0,22 1,42.5t2,35.5q-17-1-37-2t-36-2v55H727V656q-33-1-47.5-13.5t-18.5-36T656,545l-1-238q0-72-16.5-131.5T588.5,73t-85-66T382-16Q301-16 246,6T158.5,71.5T112,178.5T98,325V541q0,27 1.5,59t2.5,49q-17-1-37-1.5T29,646v54H274V656ZM521,765L388,850L256,765l-26,35L389,944h7L547,800l-26-35Z" />
      <glyph unicode="&#xdc;" glyph-name="gid51" horiz-adv-x="755" d="M274,656q-29,0-44-11t-20-29.5T205,574V315q0-59 9.5-107.5t31-84t59-55.5T396,47q67,0 110,30t64.5,86T593,296l2,275q0,22 1,42.5t2,35.5q-17-1-37-2t-36-2v55H727V656q-33-1-47.5-13.5t-18.5-36T656,545l-1-238q0-72-16.5-131.5T588.5,73t-85-66T382-16Q301-16 246,6T158.5,71.5T112,178.5T98,325V541q0,27 1.5,59t2.5,49q-17-1-37-1.5T29,646v54H274V656Zm24,127q-24,0-41.5,19.5T239,850q0,29 18,48.5T299,918t41-19.5T357,850q0-28-18-47.5T298,783Zm178,0q-24,0-41,19.5T418,850q0,29 17.5,48.5T477,918q25,0 41-19.5T534,850q0-28-17.5-47.5T476,783Z" />
      <glyph unicode="&#xdd;" glyph-name="gid57" horiz-adv-x="645" d="M211,0V44q33,2 47,14t18,36.5t4,60.5l1,105L103,540q-21,35-33.5,62T55,647q-16-1-30-1t-28-1v55H267V656q-40,1-58.5-11T192,610.5T212,558l79-126q8-12 18-28t20.5-32.5T349,338h2q9,19 20.5,40.5T395,426l74,141q5,10 13,25t17.5,30.5T519,648q-18-1-39.5-1.5T441,645v55H650V656q-44-4-73.5-32.5T514,534q-33-63-65-123.5T387,292q0-16-0.5-41T386,201t0-43.5t0-23.5q0-27-0.5-48.5T383,51q20,2 42.5,2.5T465,55V0H211Zm88,757l-27,35L393,912q18,16 34,18.5t27.5-2.5T470,916q6-9 7-22t-6-26.5T443,841L299,757Z" />
      <glyph unicode="&#xde;" glyph-name="gid43" horiz-adv-x="608" d="M53,0V44q33,2 47.5,14T119,94t4,61V571q0,22 1,42.5t2,35.5q-17-1-37-2t-36-2v55H299V656q-41-1-54.5-20.5T230,575l56,1q94,1 160-19t102-63.5T586,381q1-39-14-78.5t-51.5-72t-98-52T268,158q-11,0-20-0.5T229,158q0-44-0.5-69T226,51q17,2 37.5,2.5T299,55V0H53ZM285,208q95,1 139.5,46.5T469,374q0,43-13.5,72t-38,47t-57,26T289,527q-18,0-32,0t-28-1V210q15-2 28-2.5t28,0.5Z" />
      <glyph unicode="&#xdf;" glyph-name="gid107" horiz-adv-x="711" d="M515-16q-29,0-61.5,9T396,18l3-26H345l-5,172h42q4-56 37-93t93-37q30,0 55,18t25,53t-30.5,56T484,203q-37,17-73,36.5T352.5,289T330,367q0,62 41,103.5T493,515q1,67-13.5,105.5t-37,56.5T396,700t-44,5q-52-1-83-30t-45-81.5T210,468l1-343q0-18-1-37t-3-38q16,1 33.5,1.5T272,53V0H47V42q30,0 42,14t14.5,39t2.5,58l-1,291l-78-2v58h79q3,83 33.5,140.5T225,728t132,30q36,0 70.5-8.5t65-26.5t54-46T583,610t13-89q0-13-1-26.5T592,467q-23,2-52.5,2T483,463.5t-44.5-20T421,400q0-25 15-43t40-32t57-28q40-17 75.5-38.5t57.5-51T688,134q0-51-23-84T603.5,0.5T515-16Z" />
      <glyph unicode="&#xe0;" glyph-name="gid63" horiz-adv-x="519" d="M338,0q-2,16-3,28t-3,25Q298,19 259,1.5T178-16Q106-16 69.5,19.5T33,108q0,46 27,80t71,55.5t96,32T329,286v59q0,32-6,59.5t-24.5,45T241,467q-26,1-52-9.5T149,423q8-8 10.5-18.5T162,385q0-14-12-31.5T109,337q-24,0-36.5,16.5T60,392q0,36 26.5,64T159,500t103,16q86,0 128.5-45T433,329q0-36 0-69t-0.5-66T432,124q0-15-1-34t-3-40q17,1 35,2t34,1V0H338Zm-9,240q-32-2-65.5-9T203,210t-43.5-36T143,121q2-34 22.5-50T214,55q35,0 62,13.5T329,106q-1,11-1,22.5t0,24.5q0,9 0.5,33.5T329,240ZM303,597L188,703q-17,16-21,32t0.5,29T180,783q7,6 19.5,9t27-2.5T254,763l83-137l-34-29Z" />
      <glyph unicode="&#xe1;" glyph-name="gid60" horiz-adv-x="519" d="M338,0q-2,16-3,28t-3,25Q298,19 259,1.5T178-16Q106-16 69.5,19.5T33,108q0,46 27,80t71,55.5t96,32T329,286v59q0,32-6,59.5t-24.5,45T241,467q-26,1-52-9.5T149,423q8-8 10.5-18.5T162,385q0-14-12-31.5T109,337q-24,0-36.5,16.5T60,392q0,36 26.5,64T159,500t103,16q86,0 128.5-45T433,329q0-36 0-69t-0.5-66T432,124q0-15-1-34t-3-40q17,1 35,2t34,1V0H338Zm-9,240q-32-2-65.5-9T203,210t-43.5-36T143,121q2-34 22.5-50T214,55q35,0 62,13.5T329,106q-1,11-1,22.5t0,24.5q0,9 0.5,33.5T329,240ZM199,597l-34,29l83,137q14,20 28.5,25.5t27,3T323,783q8-6 12-19t-0.5-28.5T314,703L199,597Z" />
      <glyph unicode="&#xe2;" glyph-name="gid61" horiz-adv-x="519" d="M338,0q-2,16-3,28t-3,25Q298,19 259,1.5T178-16Q106-16 69.5,19.5T33,108q0,46 27,80t71,55.5t96,32T329,286v59q0,32-6,59.5t-24.5,45T241,467q-26,1-52-9.5T149,423q8-8 10.5-18.5T162,385q0-14-12-31.5T109,337q-24,0-36.5,16.5T60,392q0,36 26.5,64T159,500t103,16q86,0 128.5-45T433,329q0-36 0-69t-0.5-66T432,124q0-15-1-34t-3-40q17,1 35,2t34,1V0H338Zm-9,240q-32-2-65.5-9T203,210t-43.5-36T143,121q2-34 22.5-50T214,55q35,0 62,13.5T329,106q-1,11-1,22.5t0,24.5q0,9 0.5,33.5T329,240Zm50,358L252,706h-2L121,605L91,640L254,802h4L411,636l-32-38Z" />
      <glyph unicode="&#xe3;" glyph-name="gid65" horiz-adv-x="519" d="M338,0q-2,16-3,28t-3,25Q298,19 259,1.5T178-16Q106-16 69.5,19.5T33,108q0,46 27,80t71,55.5t96,32T329,286v59q0,32-6,59.5t-24.5,45T241,467q-26,1-52-9.5T149,423q8-8 10.5-18.5T162,385q0-14-12-31.5T109,337q-24,0-36.5,16.5T60,392q0,36 26.5,64T159,500t103,16q86,0 128.5-45T433,329q0-36 0-69t-0.5-66T432,124q0-15-1-34t-3-40q17,1 35,2t34,1V0H338Zm-9,240q-32-2-65.5-9T203,210t-43.5-36T143,121q2-34 22.5-50T214,55q35,0 62,13.5T329,106q-1,11-1,22.5t0,24.5q0,9 0.5,33.5T329,240Zm94,495q-18-54-49-78.5T315,632q-29,0-50.5,12.5T225,669t-37,12q-16,0-35.5-9T118,640L80,662q14,39 45.5,65T187,754q31,0 51-12t37.5-24T315,706q21,0 39,13t31,35l38-19Z" />
      <glyph unicode="&#xe4;" glyph-name="gid62" horiz-adv-x="519" d="M338,0q-2,16-3,28t-3,25Q298,19 259,1.5T178-16Q106-16 69.5,19.5T33,108q0,46 27,80t71,55.5t96,32T329,286v59q0,32-6,59.5t-24.5,45T241,467q-26,1-52-9.5T149,423q8-8 10.5-18.5T162,385q0-14-12-31.5T109,337q-24,0-36.5,16.5T60,392q0,36 26.5,64T159,500t103,16q86,0 128.5-45T433,329q0-36 0-69t-0.5-66T432,124q0-15-1-34t-3-40q17,1 35,2t34,1V0H338Zm-9,240q-32-2-65.5-9T203,210t-43.5-36T143,121q2-34 22.5-50T214,55q35,0 62,13.5T329,106q-1,11-1,22.5t0,24.5q0,9 0.5,33.5T329,240Zm7,389q-23,0-39.5,19T280,694t17,46t39,19q24,0 39.5-19T391,694t-16.5-46T336,629Zm-170,0q-22,0-38.5,19T111,694t17,46t39,19q24,0 39.5-19T222,694t-16.5-46T166,629Z" />
      <glyph unicode="&#xe5;" glyph-name="gid64" horiz-adv-x="519" d="M338,0q-2,16-3,28t-3,25Q298,19 259,1.5T178-16Q106-16 69.5,19.5T33,108q0,46 27,80t71,55.5t96,32T329,286v59q0,32-6,59.5t-24.5,45T241,467q-26,1-52-9.5T149,423q8-8 10.5-18.5T162,385q0-14-12-31.5T109,337q-24,0-36.5,16.5T60,392q0,36 26.5,64T159,500t103,16q86,0 128.5-45T433,329q0-36 0-69t-0.5-66T432,124q0-15-1-34t-3-40q17,1 35,2t34,1V0H338Zm-9,240q-32-2-65.5-9T203,210t-43.5-36T143,121q2-34 22.5-50T214,55q35,0 62,13.5T329,106q-1,11-1,22.5t0,24.5q0,9 0.5,33.5T329,240ZM253,590q-25,0-49,10.5T164,633t-17,54t14,56t39.5,37.5T251,794q25,0 49-10t39.5-31.5T356,698t-14-57.5T302.5,603T253,590Zm3,41q17,1 28,15.5T295,686q0,33-12,50.5T251,754q-17-1-29-16t-12-40q0-30 12.5-49T256,631Z" />
      <glyph unicode="&#xe6;" glyph-name="gid66" horiz-adv-x="775" d="M176-16Q109-16 70.5,18.5T32,106q0,46 27,80t70.5,55.5t95.5,32T327,284v58q0,33-6.5,61.5t-25,46.5T238,468q-29-1-53.5-13.5T148,419q7-6 10-17t3-18q0-14-12-32t-39-17q-23,1-36,16T61,390q0,32 24,61t67.5,47T253,516q50,0 85.5-21.5T390,431q28,40 67.5,62.5T552,516q48,0 88.5-22.5t65-73T730,286l-298-6q-4-72 12-124t48.5-80T571,48q42,0 76,21.5T709,128l32-27q-30-45-63-70.5t-67-36T543-16Q486-16 442,7.5T371,75Q329,23 278.5,3.5T176-16Zm34,71q37-2 68.5,13.5T334,111q-1,16-3,38t-3,46t-2,42q-32-1-64.5-8.5T202,207t-43.5-35.5T143,119q2-34 23-48.5T210,55ZM439,332H626q0,38-7.5,68.5t-25.5,48T543,466q-35,0-56.5-18.5t-32.5-49T439,332Z" />
      <glyph unicode="&#xe7;" glyph-name="gid69" horiz-adv-x="527" d="M284-16q-67,0-123,30.5T71.5,102T38,240q0,54 19,103.5T110.5,432t82,61.5T298,516q59,0 101-18t64.5-47T486,388q0-24-14-42t-40-18q-29-1-41,17.5T379,380q0,9 3,20.5T393,421q-8,21-26,31t-37,13t-32,3q-61-1-102.5-52.5T154,267q0-62 18.5-111T227,78t86-30q45,0 87,23.5T468,131l32-28q-29-45-66.5-71t-76-37T284-16ZM247-247l-7,39q21,4 42,10.5t39,15T349.5-162T360-135q0,19-13.5,24.5t-30.5,2T286-122l-35,16L281,9h62L316-72q13,7 32.5,11.5T384-56q31,0 50-17.5T453-123t-21.5-54t-55-36t-68-22T247-247Z" />
      <glyph unicode="&#xe8;" glyph-name="gid76" horiz-adv-x="541" d="M283-16q-70,0-125.5,32.5T70,108.5T38,249q0,70 31.5,131T158,478.5T290,516q42,0 79.5-13t67-40.5t46.5-71T500,286l-344-6q0-68 15.5-121T222,77t91-29q27,0 57.5,9.5t58,27.5T475,128l31-27q-30-45-69-70.5t-79.5-36T283-16ZM160,332H391q0,38-10.5,68.5T348,449t-56,18q-53,0-87-33.5T160,332ZM333,575L218,681q-17,16-21,32t0.5,29T210,761q7,6 19.5,9t27-2.5T284,741l83-137l-34-29Z" />
      <glyph unicode="&#xe9;" glyph-name="gid73" horiz-adv-x="541" d="M283-16q-70,0-125.5,32.5T70,108.5T38,249q0,70 31.5,131T158,478.5T290,516q42,0 79.5-13t67-40.5t46.5-71T500,286l-344-6q0-68 15.5-121T222,77t91-29q27,0 57.5,9.5t58,27.5T475,128l31-27q-30-45-69-70.5t-79.5-36T283-16ZM160,332H391q0,38-10.5,68.5T348,449t-56,18q-53,0-87-33.5T160,332Zm69,243l-34,29l83,137q14,20 28.5,25.5t27,3T353,761q8-6 12-19t-0.5-28.5T344,681L229,575Z" />
      <glyph unicode="&#xea;" glyph-name="gid74" horiz-adv-x="541" d="M283-16q-70,0-125.5,32.5T70,108.5T38,249q0,70 31.5,131T158,478.5T290,516q42,0 79.5-13t67-40.5t46.5-71T500,286l-344-6q0-68 15.5-121T222,77t91-29q27,0 57.5,9.5t58,27.5T475,128l31-27q-30-45-69-70.5t-79.5-36T283-16ZM160,332H391q0,38-10.5,68.5T348,449t-56,18q-53,0-87-33.5T160,332ZM409,576L282,684h-2L151,583l-30,35L284,780h4L441,614l-32-38Z" />
      <glyph unicode="&#xeb;" glyph-name="gid75" horiz-adv-x="541" d="M283-16q-70,0-125.5,32.5T70,108.5T38,249q0,70 31.5,131T158,478.5T290,516q42,0 79.5-13t67-40.5t46.5-71T500,286l-344-6q0-68 15.5-121T222,77t91-29q27,0 57.5,9.5t58,27.5T475,128l31-27q-30-45-69-70.5t-79.5-36T283-16ZM160,332H391q0,38-10.5,68.5T348,449t-56,18q-53,0-87-33.5T160,332ZM366,607q-23,0-39.5,19T310,672t17,46t39,19q24,0 39.5-19T421,672t-16.5-46T366,607Zm-170,0q-22,0-38.5,19T141,672t17,46t39,19q24,0 39.5-19T252,672t-16.5-46T196,607Z" />
      <glyph unicode="&#xec;" glyph-name="gid86" horiz-adv-x="296" d="M43,42q30,0 42,14T99.5,95t2.5,58V360q0,17 1,34.5t3,37.5q-17-1-36-1.5T35,429v53q45,0 71.5,4.5t41,10.5T169,510h38V124q0-18-1-36.5T203,50q16,1 32.5,1.5T266,53V0H43V42ZM201,575L86,681q-17,16-21,32t0.5,29T78,761q7,6 19.5,9t27-2.5T152,741l83-137l-34-29Z" />
      <glyph unicode="&#xed;" glyph-name="gid82" horiz-adv-x="296" d="M43,42q30,0 42,14T99.5,95t2.5,58V360q0,17 1,34.5t3,37.5q-17-1-36-1.5T35,429v53q45,0 71.5,4.5t41,10.5T169,510h38V124q0-18-1-36.5T203,50q16,1 32.5,1.5T266,53V0H43V42ZM97,575L63,604l83,137q14,20 28.5,25.5t27,3T221,761q8-6 12-19t-0.5-28.5T212,681L97,575Z" />
      <glyph unicode="&#xee;" glyph-name="gid83" horiz-adv-x="296" d="M43,42q30,0 42,14T99.5,95t2.5,58V360q0,17 1,34.5t3,37.5q-17-1-36-1.5T35,429v53q45,0 71.5,4.5t41,10.5T169,510h38V124q0-18-1-36.5T203,50q16,1 32.5,1.5T266,53V0H43V42ZM146,780h5L283,614l-33-35L145,676h-1L40,583L6,618L146,780Z" />
      <glyph unicode="&#xef;" glyph-name="gid84" horiz-adv-x="296" d="M43,42q30,0 42,14T99.5,95t2.5,58V360q0,17 1,34.5t3,37.5q-17-1-36-1.5T35,429v53q45,0 71.5,4.5t41,10.5T169,510h38V124q0-18-1-36.5T203,50q16,1 32.5,1.5T266,53V0H43V42ZM233,607q-23,0-39.5,19T177,672t17,46t39,19q24,0 39.5-19T288,672t-16.5-46T233,607ZM63,607q-22,0-38.5,19T8,672t17,46t39,19q24,0 39.5-19T119,672t-16.5-46T63,607Z" />
      <glyph unicode="&#xf0;" glyph-name="gid71" horiz-adv-x="553" d="M260-16q-62,0-111.5,28.5t-79,82T40,223q-1,52 13.5,100t42,87t69,62T258,496q31,1 67.5-10.5T385,442h2q-9,36-29.5,75t-50,74.5T241,651l-60-75l-44,38l55,65q-21,11-46,18.5T94,708l7,52q39-3 71.5-12T233,727l53,65l38-35l-43-54q68-41 117-107t75.5-149T500,271q1-78-25-143.5T396,23T260-16Zm13,55q34,0 62,21.5T380.5,125T398,232q0,33-6,69.5t-19.5,68T336,421t-58,21q-40,2-68-25.5t-43-73T152,244q0-99 35-152t86-53Z" />
      <glyph unicode="&#xf1;" glyph-name="gid93" horiz-adv-x="617" d="M43,0V42q30,0 42,14T99.5,95t2.5,58l1,208q0,16 0.5,34.5T107,432q-18-1-36.5-1.5T36,429v53q45,0 70.5,4.5t39,10.5T166,510h36q1-9 1.5-17t1-17t1.5-23q22,18 48,32t54.5,22.5T363,516q89,0 128.5-54T531,293V124q0-18-1-36.5T527,50q16,1 32.5,1.5T590,53V0H367V42q30,0 42,14t14.5,39t2.5,58V293q-1,79-25.5,119T322,451q-32,0-63-16t-52-39q0-10 0-21.5t0-23.5V124q0-18-1-36.5T203,50q16,1 32.5,1.5T266,53V0H43ZM499,713q-18-54-49-78.5T391,610q-29,0-50.5,12.5T301,647t-37,12q-16,0-35.5-9T194,618l-38,22q14,39 45.5,65T263,732q31,0 51-12t37.5-24T391,684q21,0 39,13t31,35l38-19Z" />
      <glyph unicode="&#xf2;" glyph-name="gid98" horiz-adv-x="579" d="M290-16q-71,0-128,32T71.5,105.5T38,238q0,81 33.5,143.5T162,480t127,36q71,0 128-32.5t90.5-90T541,261q0-79-33-142T418.5,20T290-16Zm7,50q48,1 75.5,30T412,138.5T424,233q0,43-7.5,84.5T393,393t-42,54.5T288,467q-47,0-76.5-29t-43-74.5T155,267q0-59 15-112t46.5-87T297,34Zm44,541L226,681q-17,16-21,32t0.5,29T218,761q7,6 19.5,9t27-2.5T292,741l83-137l-34-29Z" />
      <glyph unicode="&#xf3;" glyph-name="gid95" horiz-adv-x="579" d="M290-16q-71,0-128,32T71.5,105.5T38,238q0,81 33.5,143.5T162,480t127,36q71,0 128-32.5t90.5-90T541,261q0-79-33-142T418.5,20T290-16Zm7,50q48,1 75.5,30T412,138.5T424,233q0,43-7.5,84.5T393,393t-42,54.5T288,467q-47,0-76.5-29t-43-74.5T155,267q0-59 15-112t46.5-87T297,34ZM237,575l-34,29l83,137q14,20 28.5,25.5t27,3T361,761q8-6 12-19t-0.5-28.5T352,681L237,575Z" />
      <glyph unicode="&#xf4;" glyph-name="gid96" horiz-adv-x="579" d="M290-16q-71,0-128,32T71.5,105.5T38,238q0,81 33.5,143.5T162,480t127,36q71,0 128-32.5t90.5-90T541,261q0-79-33-142T418.5,20T290-16Zm7,50q48,1 75.5,30T412,138.5T424,233q0,43-7.5,84.5T393,393t-42,54.5T288,467q-47,0-76.5-29t-43-74.5T155,267q0-59 15-112t46.5-87T297,34ZM417,576L290,684h-2L159,583l-30,35L292,780h4L449,614l-32-38Z" />
      <glyph unicode="&#xf5;" glyph-name="gid100" horiz-adv-x="579" d="M290-16q-71,0-128,32T71.5,105.5T38,238q0,81 33.5,143.5T162,480t127,36q71,0 128-32.5t90.5-90T541,261q0-79-33-142T418.5,20T290-16Zm7,50q48,1 75.5,30T412,138.5T424,233q0,43-7.5,84.5T393,393t-42,54.5T288,467q-47,0-76.5-29t-43-74.5T155,267q0-59 15-112t46.5-87T297,34ZM461,713q-18-54-49-78.5T353,610q-29,0-50.5,12.5T263,647t-37,12q-16,0-35.5-9T156,618l-38,22q14,39 45.5,65T225,732q31,0 51-12t37.5-24T353,684q21,0 39,13t31,35l38-19Z" />
      <glyph unicode="&#xf6;" glyph-name="gid97" horiz-adv-x="579" d="M290-16q-71,0-128,32T71.5,105.5T38,238q0,81 33.5,143.5T162,480t127,36q71,0 128-32.5t90.5-90T541,261q0-79-33-142T418.5,20T290-16Zm7,50q48,1 75.5,30T412,138.5T424,233q0,43-7.5,84.5T393,393t-42,54.5T288,467q-47,0-76.5-29t-43-74.5T155,267q0-59 15-112t46.5-87T297,34Zm76,573q-23,0-39.5,19T317,672t17,46t39,19q24,0 39.5-19T428,672t-16.5-46T373,607Zm-170,0q-22,0-38.5,19T148,672t17,46t39,19q24,0 39.5-19T259,672t-16.5-46T203,607Z" />
      <glyph unicode="&#xf7;" glyph-name="gid232" horiz-adv-x="530" d="M265,128q-27,0-45.5,20T201,197q0,28 19.5,48.5T265,266q27,0 45-20.5T328,197q0-29-18.5-49T265,128Zm0,329q-27,0-45.5,20T201,526q0,28 19.5,48.5T265,595q27,0 45-20.5T328,526q0-29-18.5-49T265,457ZM42,393H488V334H42v59Z" />
      <glyph unicode="&#xf8;" glyph-name="gid99" horiz-adv-x="579" d="M117-78L72-44L459,568l54-35L117-78ZM290-16q-71,0-128,32T71.5,105.5T38,238q0,81 33.5,143.5T162,480t127,36q71,0 128-32.5t90.5-90T541,261q0-79-33-142T418.5,20T290-16Zm7,50q48,1 75.5,30T412,138.5T424,233q0,43-7.5,84.5T393,393t-42,54.5T288,467q-47,0-76.5-29t-43-74.5T155,267q0-59 15-112t46.5-87T297,34Z" />
      <glyph unicode="&#xf9;" glyph-name="gid113" horiz-adv-x="604" d="M253-16q-56,0-92.5,21T106,74.5T88,203V360q0,17 0.5,35.5T92,432q-17-1-36-1.5T22,429v53H46q50,0 75,9t35,19h38V205q0-79 22-118t74-38q34,0 65.5,20T407,116V353q0,22 1,41.5t4,37.5q-18-1-37-1.5T340,429v53h29q44,0 69,9t36,19h38l-1-368q0-16-1-43.5T507,50q17,1 35.5,2T577,53V0H418q-2,16-3.5,30T411,57Q380,28 339,6T253-16ZM355,575L240,681q-17,16-21,32t0.5,29T232,761q7,6 19.5,9t27-2.5T306,741l83-137l-34-29Z" />
      <glyph unicode="&#xfa;" glyph-name="gid110" horiz-adv-x="604" d="M253-16q-56,0-92.5,21T106,74.5T88,203V360q0,17 0.5,35.5T92,432q-17-1-36-1.5T22,429v53H46q50,0 75,9t35,19h38V205q0-79 22-118t74-38q34,0 65.5,20T407,116V353q0,22 1,41.5t4,37.5q-18-1-37-1.5T340,429v53h29q44,0 69,9t36,19h38l-1-368q0-16-1-43.5T507,50q17,1 35.5,2T577,53V0H418q-2,16-3.5,30T411,57Q380,28 339,6T253-16Zm-2,591l-34,29l83,137q14,20 28.5,25.5t27,3T375,761q8-6 12-19t-0.5-28.5T366,681L251,575Z" />
      <glyph unicode="&#xfb;" glyph-name="gid111" horiz-adv-x="604" d="M253-16q-56,0-92.5,21T106,74.5T88,203V360q0,17 0.5,35.5T92,432q-17-1-36-1.5T22,429v53H46q50,0 75,9t35,19h38V205q0-79 22-118t74-38q34,0 65.5,20T407,116V353q0,22 1,41.5t4,37.5q-18-1-37-1.5T340,429v53h29q44,0 69,9t36,19h38l-1-368q0-16-1-43.5T507,50q17,1 35.5,2T577,53V0H418q-2,16-3.5,30T411,57Q380,28 339,6T253-16ZM431,576L304,684h-2L173,583l-30,35L306,780h4L463,614l-32-38Z" />
      <glyph unicode="&#xfc;" glyph-name="gid112" horiz-adv-x="604" d="M253-16q-56,0-92.5,21T106,74.5T88,203V360q0,17 0.5,35.5T92,432q-17-1-36-1.5T22,429v53H46q50,0 75,9t35,19h38V205q0-79 22-118t74-38q34,0 65.5,20T407,116V353q0,22 1,41.5t4,37.5q-18-1-37-1.5T340,429v53h29q44,0 69,9t36,19h38l-1-368q0-16-1-43.5T507,50q17,1 35.5,2T577,53V0H418q-2,16-3.5,30T411,57Q380,28 339,6T253-16ZM387,607q-23,0-39.5,19T331,672t17,46t39,19q24,0 39.5-19T442,672t-16.5-46T387,607Zm-170,0q-22,0-38.5,19T162,672t17,46t39,19q24,0 39.5-19T273,672t-16.5-46T217,607Z" />
      <glyph unicode="&#xfd;" glyph-name="gid118" horiz-adv-x="536" d="M130-271q-33,0-56.5,17.5T50-203q0,21 13.5,38T99-148q24,1 34.5-15T144-196q0-3 0-6t-1-7q3-2 9-1q11,1 24,12t24,31q12,22 27,61t33,90L103,312q-27,56-37.5,87.5T52,449L4,447v53H225V459h-2q-41-4-44.5-31T197,354L307,112q19,51 38.5,111T386,346q7,19 14.5,40.5t16,39.5T433,451l-65-4v53H532V459q-35-12-54.5-44T440,334L315-18q-29-83-54-139.5t-55.5-85T130-271ZM238,575l-34,29l83,137q14,20 28.5,25.5t27,3T362,761q8-6 12-19t-0.5-28.5T353,681L238,575Z" />
      <glyph unicode="&#xfe;" glyph-name="gid103" horiz-adv-x="576" d="M11-255v42q30,0 42,14t14.5,39T70-102l2,707q0,17 0.5,35.5T75,677q-17-1-36-1.5T5,674v53q45,0 71.5,4.5T117,742t21,13h37V462q31,25 68.5,39.5T320,516q61,0 110-30.5T507.5,398T536,264q0-84-33.5-147T412,19T284-16q-33,0-59.5,7T175,11V-131q0-18-1-36.5T171-205q16,1 32.5,1.5T234-202v-53H11ZM277,36q47,0 78.5,28T403,140t16,109q0,51-14.5,98t-45,77T280,453q-31,0-58.5-13T175,405V67q20-15 46.5-23.5T277,36Z" />
      <glyph unicode="&#xff;" glyph-name="gid119" horiz-adv-x="536" d="M130-271q-33,0-56.5,17.5T50-203q0,21 13.5,38T99-148q24,1 34.5-15T144-196q0-3 0-6t-1-7q3-2 9-1q11,1 24,12t24,31q12,22 27,61t33,90L103,312q-27,56-37.5,87.5T52,449L4,447v53H225V459h-2q-41-4-44.5-31T197,354L307,112q19,51 38.5,111T386,346q7,19 14.5,40.5t16,39.5T433,451l-65-4v53H532V459q-35-12-54.5-44T440,334L315-18q-29-83-54-139.5t-55.5-85T130-271ZM374,607q-23,0-39.5,19T318,672t17,46t39,19q24,0 39.5-19T429,672t-16.5-46T374,607Zm-170,0q-22,0-38.5,19T149,672t17,46t39,19q24,0 39.5-19T260,672t-16.5-46T204,607Z" />
      <glyph unicode="&#x2013;" glyph-name="gid182" horiz-adv-x="581" d="M61,277v82H518V280L61,277Z" />
      <glyph unicode="&#x2014;" glyph-name="gid183" horiz-adv-x="842" d="M61,277v82H778V280L61,277Z" />
      <glyph unicode="&#x2018;" glyph-name="gid195" horiz-adv-x="224" d="M122,760l31-23q-11-13-23.5-39.5T109,640t-6-61q7,2 12.5,3.5T127,584q22,0 37.5-14.5T180,529q0-29-17-46.5T120,465q-38,0-58,28T42,561q0,28 9.5,63.5t27.5,72T122,760Z" />
      <glyph unicode="&#x2019;" glyph-name="gid196" horiz-adv-x="186" d="M82,465L51,488q11,14 23.5,40t21,57.5T101,647q-7-3-12.5-4T77,642q-21,0-37,14.5T24,696q0,29 17.5,46.5T84,760q39,0 58.5-27.5T162,664q0-27-9.5-63T125,529.5T82,465Z" />
      <glyph unicode="&#x201a;" glyph-name="gid191" horiz-adv-x="252" d="M117-182L86-159q11,14 23.5,40t21,57.5T136,0q-7-3-12.5-4T112-5Q91-5 75,9.5T59,49q0,29 17.5,46.5T119,113q39,0 58.5-27.5T197,17q0-27-9.5-63T160-117.5T117-182Z" />
      <glyph unicode="&#x201c;" glyph-name="gid193" horiz-adv-x="408" d="M122,760l31-23q-11-13-23.5-39.5T109,640t-6-61q7,2 12.5,3.5T127,584q22,0 37.5-14.5T180,529q0-29-17-46.5T120,465q-38,0-58,28T42,561q0,28 9.5,63.5t27.5,72T122,760Zm184,0l31-23q-11-13-23.5-39.5T293,640t-6-61q7,2 12.5,3.5T311,584q22,0 37.5-14.5T364,529q0-29-17-46.5T304,465q-38,0-58,28t-20,68q0,28 9.5,63.5t27.5,72T306,760Z" />
      <glyph unicode="&#x201d;" glyph-name="gid194" horiz-adv-x="370" d="M82,465L51,488q11,14 23.5,40t21,57.5T101,647q-7-3-12.5-4T77,642q-21,0-37,14.5T24,696q0,29 17.5,46.5T84,760q39,0 58.5-27.5T162,664q0-27-9.5-63T125,529.5T82,465Zm184,0l-31,23q11,14 23.5,40t21,57.5T285,647q-7-3-12.5-4T261,642q-21,0-37,14.5T208,696q0,29 17.5,46.5T268,760q39,0 58.5-27.5T346,664q0-27-9.5-63T309,529.5T266,465Z" />
      <glyph unicode="&#x201e;" glyph-name="gid192" horiz-adv-x="436" d="M117-182L86-159q11,14 23.5,40t21,57.5T136,0q-7-3-12.5-4T112-5Q91-5 75,9.5T59,49q0,29 17.5,46.5T119,113q39,0 58.5-27.5T197,17q0-27-9.5-63T160-117.5T117-182Zm184,0l-31,23q11,14 23.5,40t21,57.5T320,0q-7-3-12.5-4T296-5Q275-5 259,9.5T243,49q0,29 17.5,46.5T303,113q39,0 58.5-27.5T381,17q0-27-9.5-63T344-117.5T301-182Z" />
      <glyph unicode="&#x2022;" glyph-name="gid168" horiz-adv-x="395" d="M197,219q-42,0-77,20T64.5,293.5T44,370q0,43 20.5,77T120,501t77,20t77-20t56-54t21-77q0-42-21-76.5T274,239t-77-20Z" />
      <glyph unicode="&#x2039;" glyph-name="gid199" horiz-adv-x="381" d="M300-10L27,270v10L297,550l41-39L147,278v-1L339,30L300-10Z" />
      <glyph unicode="&#x203a;" glyph-name="gid200" horiz-adv-x="381" d="M81-10L42,30L234,277v1L43,511l40,39L354,280V270L81-10Z" />
    </font>
</defs>
</svg>
